<svg width="176" height="104" viewBox="0 0 176 104" fill="none" xmlns="http://www.w3.org/2000/svg">
<path d="M92.7246 47.4269C92.0907 47.4186 91.5967 47.2666 91.2448 46.9717C90.893 46.6768 90.7151 46.2892 90.7106 45.8089H89.8381V57.6603H90.7106C90.7151 57.1808 90.893 56.7924 91.2448 56.4975C91.5967 56.2027 92.0907 56.0507 92.7246 56.0423H103.558V61.6389C102.624 62.4711 100.964 63.3869 98.5819 64.3863C96.2008 65.3857 93.0331 65.9314 89.0804 66.0211C85.8025 66.0264 82.7876 65.3956 80.0371 64.1295C77.2859 62.8618 75.0736 60.9352 73.4001 58.3436C71.7265 55.7535 70.867 52.4726 70.8206 48.5038C70.8609 44.7076 71.7319 41.5529 73.4327 39.0373C75.1329 36.5217 77.422 34.6399 80.2978 33.3905C83.1736 32.1403 86.3953 31.5163 89.9604 31.5186C92.7831 31.5566 95.3336 31.9442 97.6136 32.6784C99.8936 33.4133 101.709 34.2645 103.057 35.2312C104.405 36.1979 105.097 37.0491 105.13 37.7833C105.119 38.2666 105.079 38.6489 105.005 38.9286L105.877 39.5351L111.981 28.4946L111.101 28.0902C110.956 28.3095 110.758 28.4889 110.526 28.6124C110.275 28.753 110.005 28.8259 109.716 28.8312C109.473 28.8138 108.796 28.547 107.687 28.0317C106.578 27.5164 105.176 26.8621 103.486 26.0686C101.674 25.434 99.5957 24.8663 97.2534 24.367C94.9096 23.8677 92.4365 23.6047 89.8328 23.5758C85.3655 23.5622 81.0107 24.4422 76.7691 26.2138C72.5276 27.9861 69.0126 30.732 66.2257 34.4514C63.4387 38.1716 61.994 42.9437 61.8906 48.7706C61.9583 54.5975 63.2351 59.3696 65.7218 63.089C68.2077 66.8092 71.4985 69.5543 75.5934 71.3267C79.6891 73.0982 84.1829 73.9783 89.0773 73.9646C92.7344 73.9175 96.1772 73.444 99.3996 72.5495C102.622 71.6535 105.462 70.6244 107.915 69.4593C110.369 68.2943 112.269 67.2842 113.618 66.4285V65.4861C113.215 65.3956 112.922 65.2231 112.746 64.9708C112.57 64.72 112.482 64.3293 112.486 63.7996V50.5232C112.497 49.7936 112.617 49.2669 112.849 48.9408C113.08 48.6148 113.358 48.4248 113.684 48.3686V47.4262L92.7246 47.4269ZM142.149 39.1072C142.498 39.1075 142.842 39.0174 143.147 38.8458C143.448 38.6748 143.689 38.4399 143.869 38.1405C144.054 37.8285 144.15 37.4723 144.148 37.1099C144.15 36.7497 144.054 36.3957 143.869 36.0862C143.693 35.7935 143.444 35.5514 143.147 35.3832C142.841 35.2114 142.496 35.1211 142.145 35.1211C141.794 35.1211 141.449 35.2114 141.143 35.3832C140.845 35.5508 140.595 35.7931 140.418 36.0862C140.233 36.3957 140.137 36.7497 140.139 37.1099C140.143 37.4975 140.237 37.8418 140.418 38.1405C140.598 38.4407 140.842 38.6755 141.143 38.8458C141.446 39.0168 141.782 39.1034 142.149 39.1072ZM140.535 37.1092C140.538 36.7915 140.611 36.5088 140.752 36.2602C140.894 36.0117 141.085 35.8164 141.328 35.6728C141.577 35.5281 141.861 35.4523 142.149 35.4531C142.45 35.4562 142.722 35.5291 142.963 35.6728C143.203 35.8164 143.393 36.0117 143.534 36.2602C143.677 36.5088 143.748 36.7915 143.751 37.1092C143.754 37.4091 143.68 37.7047 143.534 37.9672C143.399 38.2106 143.202 38.4138 142.963 38.5562C142.716 38.7009 142.435 38.7765 142.149 38.7751C141.865 38.7788 141.585 38.7057 141.339 38.5635C141.093 38.4212 140.89 38.2152 140.752 37.9672C140.607 37.7046 140.533 37.4091 140.535 37.1092ZM141.729 37.2672H142.127L142.729 38.2644H143.117L142.468 37.2513C142.624 37.2391 142.773 37.1767 142.891 37.0734C143.001 36.9746 143.057 36.8226 143.062 36.619C143.062 36.3932 142.995 36.2276 142.859 36.1219C142.726 36.017 142.525 35.9638 142.254 35.9654H141.384V38.2636H141.729V37.2672ZM141.729 36.9731V36.2602H142.201C142.317 36.2543 142.433 36.2754 142.539 36.3218C142.641 36.3674 142.692 36.4594 142.698 36.5977C142.694 36.7687 142.638 36.8743 142.53 36.9176C142.406 36.963 142.274 36.9816 142.142 36.9724L141.729 36.9731Z" fill="black"/>
<path d="M62.8657 60.3788C62.0183 58.3959 61.4505 56.2862 61.107 54.1065C61.009 53.4945 60.9297 52.8796 60.8691 52.2627C60.7508 51.1066 60.6872 49.9456 60.6784 48.7835V48.7462C60.701 47.297 60.8147 45.8507 61.0189 44.4157C61.1252 43.6846 61.2362 43.0705 61.395 42.3501C61.5394 41.6904 61.6831 41.1401 61.8754 40.4949C62.2517 39.1998 62.7486 37.9428 63.3596 36.7405C63.9022 35.6482 64.5454 34.6088 65.2809 33.6359C65.5861 33.2283 65.9021 32.8289 66.2286 32.4381V29.0136C66.2134 28.4641 66.2887 28.0742 66.4536 27.8409C66.6185 27.6068 66.9636 27.4936 67.4887 27.4997V26.8005H58.5367V27.4997C59.0634 27.4936 59.416 27.6068 59.5946 27.8409C59.7724 28.0742 59.8553 28.4641 59.8416 29.0136V49.8984C59.8667 51.9413 59.5878 53.6399 59.0048 54.884C58.4227 56.1281 57.3898 57.0272 55.9071 57.5865C54.4243 58.1459 52.345 58.421 49.6682 58.4111C46.9923 58.421 44.9122 58.1451 43.4294 57.5865C41.9474 57.0287 40.9146 56.1281 40.3316 54.884C39.7495 53.6399 39.4706 51.9413 39.4949 49.8984V29.0136C39.482 28.4641 39.564 28.0742 39.7426 27.8409C39.9212 27.6068 40.2731 27.4936 40.8006 27.4997V26.8005H31.8516V27.4997C32.376 27.4936 32.7225 27.6068 32.8859 27.8409C33.0516 28.0742 33.1261 28.4641 33.1109 29.0136V51.1091C33.1534 55.8826 34.6195 59.2441 37.5075 61.1943C40.3955 63.1429 44.4493 64.0845 49.6682 64.0177C54.8879 64.0845 58.9418 63.1444 61.8298 61.1943C62.1991 60.945 62.5434 60.6744 62.8657 60.3788ZM102.039 46.1227H109.001C108.987 45.8491 108.979 45.5709 108.976 45.2882C109.007 42.4215 109.685 40.0389 111.008 38.1389C112.332 36.2389 114.113 34.8177 116.351 33.8738C118.59 32.9299 121.098 32.4587 123.872 32.4594C126.071 32.4898 128.057 32.7817 129.832 33.3357C131.606 33.8905 133.017 34.5335 134.069 35.2638C135.119 35.9942 135.656 36.6371 135.682 37.1919C135.673 37.5567 135.64 37.8455 135.582 38.0576L136.263 38.5151L141.016 30.1771L140.33 29.8724C140.216 30.0388 140.063 30.1741 139.883 30.2661C139.69 30.3715 139.473 30.4283 139.253 30.4317C139.064 30.4181 138.537 30.2167 137.673 29.8268C136.809 29.4384 135.72 28.9444 134.403 28.3448C132.992 27.866 131.375 27.4373 129.55 27.0604C127.726 26.6827 125.8 26.4835 123.773 26.4623C120.297 26.4524 116.906 27.1166 113.603 28.455L113.37 28.5515L106.282 41.3689L103.599 39.5054L103.833 38.5858C103.849 38.5242 103.86 38.4718 103.87 38.4079V38.4041C103.881 38.3312 103.887 38.2696 103.894 38.1967C103.906 38.072 103.91 37.9656 103.915 37.8395L103.909 37.8235C103.906 37.8205 103.906 37.8174 103.904 37.8151C103.878 37.7501 103.844 37.6884 103.804 37.6312L103.802 37.6282C103.768 37.5786 103.732 37.5304 103.694 37.4838C102.634 39.7706 102.076 42.4397 102.022 45.4919C102.026 45.7017 102.031 45.9129 102.039 46.1227ZM113.707 55.6463V62.924C116.617 63.9933 119.777 64.5238 123.185 64.5155C126.033 64.4797 128.711 64.1225 131.222 63.4477C133.73 62.7697 135.939 61.993 137.85 61.1129C139.76 60.2336 141.24 59.4698 142.291 58.8231V58.1102C141.975 58.041 141.749 57.9118 141.61 57.7211C141.472 57.5318 141.404 57.2362 141.407 56.8364V46.812C141.416 46.261 141.51 45.8628 141.689 45.6181C141.868 45.3718 142.085 45.2274 142.338 45.1856V44.4743H126.025C125.531 44.4674 125.147 44.3527 124.871 44.13C124.739 44.0254 124.633 43.8918 124.561 43.7396C124.489 43.5874 124.453 43.4206 124.455 43.2522H123.775V52.2035H124.455C124.46 51.8394 124.598 51.5483 124.871 51.3249C125.145 51.1022 125.529 50.9882 126.025 50.9806H134.457V55.2077C133.73 55.8355 132.439 56.5271 130.585 57.2825C128.731 58.0372 126.263 58.4491 123.188 58.5168C120.637 58.5206 118.292 58.0441 116.148 57.088C115.281 56.7041 114.462 56.2203 113.707 55.6463ZM37.1678 85.1327H36.2991V84.5901C36.2208 84.6403 36.1174 84.7132 35.9852 84.8067C35.7177 84.9928 35.4176 85.1268 35.1006 85.2019C34.9113 85.249 34.6902 85.2733 34.4363 85.2733C33.9689 85.2733 33.5722 85.1213 33.2469 84.8166C32.9216 84.5133 32.7598 84.125 32.7598 83.6538C32.7598 83.2677 32.8441 82.9553 33.0128 82.7167C33.1816 82.4788 33.4225 82.2896 33.7348 82.1543C34.051 82.0175 34.4302 81.924 34.8733 81.8761C35.3164 81.8283 35.7914 81.7918 36.2991 81.7652V81.6329C36.2991 81.4384 36.2649 81.2773 36.195 81.1496C36.1263 81.0222 36.022 80.9176 35.8948 80.8486C35.7563 80.7741 35.6053 80.7257 35.4494 80.7057C35.013 80.6454 34.5693 80.6634 34.1392 80.7589C33.858 80.8167 33.5669 80.9026 33.2667 81.0158H33.2196V80.1449C33.3898 80.0985 33.636 80.0483 33.9583 79.9951C34.2728 79.9411 34.5914 79.9136 34.9106 79.9131C35.2754 79.9131 35.5938 79.9435 35.8651 80.002C36.1357 80.062 36.3705 80.1623 36.5681 80.3052C36.7634 80.4451 36.9124 80.6259 37.0142 80.8471C37.1168 81.0698 37.1678 81.3441 37.1678 81.6725V85.1327ZM36.2991 83.8787V82.4606C36.0331 82.4765 35.7192 82.4993 35.359 82.529C34.9987 82.5601 34.713 82.6042 34.5024 82.6612C34.2516 82.7327 34.0487 82.8398 33.8937 82.9888C33.7386 83.1362 33.6611 83.3391 33.6611 83.5983C33.6611 83.8894 33.7516 84.1105 33.9302 84.2565C34.1103 84.4039 34.3839 84.4776 34.7525 84.4776C35.0588 84.4776 35.3392 84.4199 35.593 84.3036C35.8469 84.185 36.0825 84.0429 36.2991 83.8787ZM51.4284 85.1327H50.5552V84.5673C50.261 84.7953 49.9798 84.9701 49.71 85.0917C49.4292 85.215 49.1253 85.277 48.8186 85.2733C48.2729 85.2733 47.8488 85.1099 47.5456 84.7824C47.2423 84.4556 47.0903 83.9753 47.0903 83.3422V80.0347H47.9636V82.9363C47.9636 83.1932 47.9765 83.4144 48.0008 83.5998C48.0259 83.7822 48.0791 83.9395 48.1589 84.0703C48.2425 84.2055 48.3504 84.3021 48.4842 84.3629C48.6164 84.4237 48.811 84.4548 49.0648 84.4548C49.2905 84.4548 49.5375 84.3971 49.805 84.2808C50.0741 84.166 50.3234 84.0171 50.5552 83.8385V80.0339H51.4284V85.1327ZM65.132 83.6659C65.132 84.1295 64.9359 84.5111 64.5452 84.8105C64.1539 85.1084 63.6188 85.2574 62.9409 85.2574C62.5571 85.2574 62.2045 85.2118 61.8837 85.1221C61.6067 85.0491 61.337 84.9507 61.0781 84.828V83.8651H61.1252C61.4004 84.0687 61.7066 84.2299 62.0448 84.3507C62.3823 84.4708 62.7061 84.5308 63.0154 84.5308C63.3992 84.5308 63.6994 84.47 63.916 84.3484C64.1326 84.2276 64.2412 84.0353 64.2412 83.7739C64.2412 83.5717 64.182 83.4212 64.0649 83.3163C63.9471 83.213 63.7214 83.1248 63.387 83.0519C63.2257 83.0171 63.0638 82.9852 62.9014 82.9561C62.7183 82.9223 62.5363 82.8828 62.3557 82.8375C61.9012 82.7197 61.5782 82.5449 61.3875 82.3154C61.1975 82.0851 61.1017 81.8032 61.1017 81.4688C61.1017 81.259 61.1465 81.0614 61.2339 80.876C61.3221 80.6921 61.4558 80.5249 61.636 80.3805C61.8092 80.2368 62.0296 80.1236 62.2979 80.04C62.5894 79.9534 62.8922 79.9111 63.1962 79.9146C63.5063 79.9146 63.8194 79.9526 64.1371 80.0255C64.4107 80.0851 64.6764 80.1761 64.9291 80.2969V81.2134H64.8827C64.6331 81.0382 64.3591 80.9007 64.0695 80.8053C63.7682 80.6972 63.4509 80.6407 63.1309 80.6381C62.8125 80.6381 62.5434 80.6981 62.323 80.8175C62.1034 80.9375 61.9932 81.1177 61.9932 81.3548C61.9932 81.563 62.06 81.7219 62.1931 81.8283C62.323 81.9362 62.5335 82.0213 62.8246 82.0882C62.9857 82.1254 63.1658 82.1627 63.3657 82.1991C63.5656 82.2349 63.732 82.2683 63.865 82.2995C64.2709 82.3907 64.5832 82.5465 64.8029 82.7691C65.0225 82.9949 65.132 83.2928 65.132 83.6659ZM78.4168 85.0879C78.24 85.1339 78.0605 85.1692 77.8795 85.1935C77.7081 85.2191 77.5352 85.233 77.3619 85.2353C76.8322 85.2353 76.4301 85.094 76.1543 84.8151C75.8791 84.5354 75.7408 84.087 75.7408 83.4691V80.7605H75.1511V80.04H75.7408V78.5755H76.6141V80.04H78.4168V80.7605H76.6141V83.0823C76.6141 83.3513 76.6201 83.5595 76.6323 83.71C76.6452 83.8597 76.6885 84.0011 76.7623 84.1318C76.8299 84.2534 76.9241 84.3423 77.0435 84.3993C77.1628 84.4571 77.3444 84.4837 77.5891 84.4837C77.7313 84.4837 77.8795 84.4632 78.0345 84.4221C78.1895 84.3803 78.3005 84.3461 78.3681 84.3188H78.4153L78.4168 85.0879ZM92.0489 80.9733H92.0025C91.8771 80.9449 91.7503 80.923 91.6225 80.9079C91.4786 80.8927 91.334 80.8859 91.1893 80.8874C90.9195 80.8874 90.6596 80.9451 90.4096 81.0622C90.1588 81.1792 89.9179 81.3312 89.6845 81.5167V85.1343H88.8121V80.0392H89.6845V80.7909C90.0311 80.5188 90.3358 80.3242 90.6019 80.2095C90.8679 80.0962 91.1369 80.0377 91.412 80.0377C91.5633 80.0377 91.6735 80.0423 91.7426 80.0499C91.8118 80.0575 91.9129 80.0711 92.0489 80.0932V80.9733ZM105.59 85.1327H104.72V84.5901C104.642 84.6403 104.54 84.7132 104.407 84.8067C104.14 84.9931 103.84 85.1272 103.523 85.2019C103.305 85.2521 103.082 85.2761 102.858 85.2733C102.391 85.2733 101.993 85.1213 101.67 84.8166C101.344 84.5133 101.182 84.125 101.182 83.6538C101.182 83.2677 101.266 82.9553 101.435 82.7167C101.604 82.4788 101.845 82.2896 102.157 82.1543C102.473 82.0175 102.852 81.924 103.295 81.8761C103.737 81.8283 104.213 81.7918 104.72 81.7652V81.6329C104.72 81.4384 104.686 81.2773 104.616 81.1496C104.546 81.0227 104.442 80.9182 104.315 80.8486C104.177 80.7741 104.025 80.7256 103.869 80.7057C103.433 80.6454 102.989 80.6634 102.559 80.7589C102.262 80.8213 101.97 80.9073 101.686 81.0158H101.639V80.1449C101.81 80.0985 102.057 80.0483 102.379 79.9951C102.7 79.9404 103.017 79.9131 103.331 79.9131C103.695 79.9131 104.014 79.9435 104.286 80.002C104.555 80.062 104.791 80.1623 104.989 80.3052C105.184 80.4451 105.332 80.6259 105.435 80.8471C105.537 81.0698 105.588 81.3441 105.588 81.6725V85.132H105.59V85.1327ZM104.72 83.8787V82.4606C104.407 82.4799 104.093 82.5027 103.78 82.529C103.491 82.5487 103.204 82.5929 102.923 82.6612C102.673 82.7327 102.469 82.8398 102.315 82.9888C102.16 83.1362 102.082 83.3391 102.082 83.5983C102.082 83.8894 102.172 84.1105 102.351 84.2565C102.529 84.4039 102.804 84.4776 103.173 84.4776C103.479 84.4776 103.759 84.4199 104.012 84.3036C104.267 84.185 104.504 84.0429 104.72 83.8787ZM116.625 85.1327H115.752V78.0351H116.625V85.1327ZM128.051 79.185H127.067V78.295H128.051V79.185ZM127.996 85.1327H127.124V80.0377H127.996V85.1327ZM142.517 85.1327H141.648V84.5901C141.571 84.6403 141.466 84.7132 141.334 84.8067C141.067 84.9927 140.767 85.1268 140.45 85.2019C140.233 85.2525 140.01 85.2765 139.787 85.2733C139.319 85.2733 138.921 85.1213 138.598 84.8166C138.271 84.5133 138.109 84.125 138.109 83.6538C138.109 83.2677 138.193 82.9553 138.362 82.7167C138.531 82.4788 138.773 82.2896 139.085 82.1543C139.4 82.0175 139.778 81.924 140.222 81.8761C140.696 81.826 141.172 81.789 141.648 81.7652V81.6329C141.648 81.4384 141.614 81.2773 141.542 81.1496C141.474 81.0223 141.369 80.9178 141.242 80.8486C141.104 80.7739 140.953 80.7255 140.797 80.7057C140.36 80.6452 139.917 80.6632 139.487 80.7589C139.19 80.821 138.898 80.907 138.615 81.0158H138.568V80.1449C138.739 80.0985 138.984 80.0483 139.306 79.9951C139.621 79.9411 139.939 79.9137 140.258 79.9131C140.624 79.9131 140.941 79.9435 141.213 80.002C141.484 80.062 141.719 80.1623 141.917 80.3052C142.113 80.4451 142.261 80.6259 142.364 80.8471C142.467 81.0698 142.517 81.3441 142.517 81.6725V85.1327ZM141.649 83.8787V82.4606C141.382 82.4765 141.069 82.4993 140.709 82.529C140.42 82.5485 140.133 82.5927 139.852 82.6612C139.601 82.7327 139.398 82.8398 139.243 82.9888C139.088 83.1362 139.01 83.3391 139.01 83.5983C139.01 83.8894 139.101 84.1105 139.28 84.2565C139.459 84.4039 139.733 84.4776 140.102 84.4776C140.391 84.4813 140.678 84.4219 140.942 84.3036C141.197 84.1835 141.433 84.0429 141.649 83.8787Z" fill="black"/>
</svg>
