<svg width="176" height="104" viewBox="0 0 176 104" fill="none" xmlns="http://www.w3.org/2000/svg">
<path d="M150.144 30.7916C143.727 24.5095 135.128 19.4583 124.346 15.6997C113.499 12.0072 101.394 10.0662 87.9673 10C74.6057 10.0662 62.5013 12.0072 51.6541 15.6997C40.8723 19.4583 32.2731 24.5095 25.8564 30.7916C19.4397 37.0736 16.1964 44.1938 16 52.0331C16.1964 59.8062 19.4397 66.8647 25.8564 73.2084C32.2731 79.4905 40.8723 84.5417 51.6541 88.3003C62.4358 91.9928 74.5402 93.9338 87.9673 94C101.394 93.9338 113.499 91.9928 124.346 88.3003C135.128 84.5461 143.727 79.4905 150.144 73.2084C156.56 66.8602 159.799 59.8018 160 52.0331C159.799 44.1938 156.56 37.0736 150.144 30.7916ZM148.939 70.2086C142.671 75.6039 134.242 79.9449 123.661 83.0947C113.075 86.3195 101.215 88.2341 88.0677 88.3003C74.9244 88.2341 63.1299 86.3195 52.5445 83.0947C41.9636 79.9449 33.4691 75.5995 27.2008 70.2086C20.9282 64.8133 17.7591 58.721 17.6282 51.9978C17.7635 45.3408 20.9326 39.2485 27.2008 33.8576C33.4647 28.4579 41.9592 24.1169 52.5445 20.8965C63.1299 17.7422 74.9244 15.6556 88.0677 15.585C101.215 15.6556 113.075 17.7467 123.661 20.8965C134.242 24.1169 142.671 28.4623 148.939 33.8576C155.207 39.2485 158.442 45.3408 158.577 51.9978C158.442 58.721 155.207 64.8133 148.939 70.2086ZM70.8823 45.182C70.568 45.1732 69.9132 45.182 69.5204 45.1996C69.1275 45.2129 68.7827 45.4908 68.6866 45.8216C68.0232 48.1024 65.6485 56.3123 65.5482 56.6167C65.4303 56.974 65.164 56.9431 65.1029 56.6431C65.0418 56.3432 63.2434 46.126 63.1823 45.8437C63.1037 45.4996 63.0033 45.2393 62.3835 45.2173C61.6458 45.1952 60.5239 45.1687 60.1573 45.1643C59.5898 45.1555 59.2406 45.2834 59.3759 45.7952C59.4938 46.2407 62.1914 57.1328 62.8942 59.9827C62.9989 60.4106 63.4529 60.6135 63.8807 60.5606C64.2561 60.5121 64.6577 60.4591 64.8672 60.4194C65.3168 60.3356 65.6878 60.3753 66.12 60.4768C66.2815 60.5165 66.4736 60.5562 66.6525 60.5915C66.9493 60.6532 67.3204 60.3135 67.4339 59.9033C67.5299 59.5503 70.5418 48.9627 71.3494 46.126C71.5021 45.5922 71.2926 45.1952 70.8823 45.182ZM59.2275 59.9209C58.8172 59.5592 58.2454 59.0915 57.9965 58.8621C57.8787 58.7519 57.8088 58.6283 57.8263 58.4386C57.9791 56.7843 58.6688 49.3288 58.6862 49.1303C58.7517 48.42 58.5596 47.9039 58.0271 47.3348C57.4727 46.7392 56.8573 46.0687 56.7525 45.9672C56.2069 45.4202 55.4604 45.1379 54.6223 45.1334C53.5136 45.129 51.6453 45.054 51.4707 45.0496C50.7156 45.032 50.2267 45.1467 49.5457 45.5746C48.9608 45.9452 48.258 46.3951 48.1358 46.479C47.7255 46.7701 47.4898 47.0745 47.4156 47.5157C47.2977 48.2083 47.11 49.3112 47.0882 49.4788C47.014 49.9773 47.2148 50.1891 47.6251 50.167C47.7648 50.1582 48.9477 50.0788 49.6199 50.0391C50.0303 50.017 50.2267 49.9023 50.3926 49.3994C50.4318 49.2759 50.7898 48.2436 50.9818 47.6833C51.1259 47.2907 51.3005 47.1804 51.641 47.1231C52.0993 47.0392 52.7104 46.9598 52.8283 46.9466C53.1819 46.9069 53.4088 46.9422 53.7057 47.1363C53.8322 47.2157 54.5787 47.7451 54.6747 47.8157C54.8057 47.9083 55.0545 48.173 55.0545 48.5524C55.0545 48.7024 55.0894 50.8993 55.0894 50.8993C55.0894 50.8993 55.0807 51.2699 54.6442 51.1287C54.0243 50.9258 52.4398 50.3788 51.737 50.5155C51.2743 50.6082 50.4711 50.9126 50.2398 51.014C49.7553 51.2258 49.0306 51.5522 48.2668 51.9316C47.4592 52.3331 47.1929 52.5889 47.0576 52.708C46.56 53.1668 46.5382 53.7801 46.5033 54.3536C46.4465 55.28 46.3112 57.2916 46.3156 57.4416C46.3374 58.1298 46.56 58.7298 47.1668 59.193C47.9961 59.8283 49.1092 60.6665 49.2882 60.8032C49.8469 61.2355 50.9076 61.2444 51.3965 60.9929C52.4747 60.4415 54.7489 59.2548 54.7969 59.2239C54.8537 59.193 54.9366 59.1974 54.9715 59.3121C54.9934 59.3871 55.0108 59.44 55.0283 59.5018C55.0545 59.6165 55.1549 59.7577 55.2684 59.8547C55.7747 60.2827 56.8311 61.1958 56.9009 61.2532C57.2632 61.5664 57.6211 61.562 57.9442 61.3855C58.7517 60.9444 59.1838 60.6709 59.2493 60.6312C59.6422 60.4194 59.5243 60.1812 59.2275 59.9209ZM54.6747 57.221C54.4914 57.3181 53.1338 58.0195 52.3918 58.4033C52.0993 58.5533 51.7021 58.5577 51.4227 58.421C51.2307 58.3239 50.6021 57.9887 50.2485 57.821C49.9517 57.6754 49.7771 57.3622 49.7203 56.9696C49.6898 56.7534 49.6199 55.5403 49.5763 54.8168C49.5414 54.5388 49.6287 54.0889 49.908 53.8595C50.0608 53.7359 50.6501 53.4227 50.9513 53.2463C51.3572 53.0169 51.8418 52.8272 52.1211 52.7169C52.5358 52.5536 52.9156 52.5978 53.7362 52.8183C53.9414 52.8757 54.6005 53.0477 54.7402 53.136C54.9803 53.3124 55.0108 53.5948 55.0108 53.7977C55.0108 53.9433 55.0152 55.8446 55.0196 56.5505C55.0283 56.8372 54.9322 57.0887 54.6747 57.221ZM84.1958 59.9121C83.7855 59.5503 83.2137 59.0827 82.9692 58.8577C82.8514 58.7474 82.7815 58.6195 82.799 58.4342C82.9518 56.7799 83.6415 49.3244 83.6589 49.1259C83.7244 48.4156 83.5323 47.8995 82.9998 47.326C82.4454 46.7348 81.8299 46.0643 81.7252 45.9584C81.1796 45.4114 80.4331 45.129 79.5906 45.1246C78.4819 45.1202 76.6137 45.0452 76.4391 45.0408C75.6839 45.0232 75.195 45.1379 74.514 45.5658C73.9291 45.9363 73.2263 46.3863 73.1041 46.4701C72.6938 46.7613 72.4581 47.0657 72.3839 47.5024C72.266 48.1951 72.0783 49.3023 72.0565 49.4656C71.9823 49.9641 72.1831 50.1758 72.5934 50.1538C72.7331 50.1449 73.9117 50.07 74.5883 50.0258C74.9986 50.0038 75.1906 49.8891 75.3565 49.3862C75.3958 49.2671 75.7537 48.2303 75.9458 47.6701C76.0898 47.2775 76.2645 47.1672 76.6049 47.1098C77.0633 47.026 77.6744 46.9466 77.7922 46.9334C78.1458 46.8892 78.3728 46.9289 78.6696 47.1231C78.7962 47.2025 79.5426 47.7318 79.6387 47.8024C79.7696 47.8951 80.0184 48.1598 80.0184 48.5392C80.0184 48.6891 80.0534 50.8861 80.0534 50.8861C80.0534 50.8861 80.0446 51.2567 79.6081 51.1155C78.9883 50.9126 77.4037 50.3655 76.701 50.5067C76.2339 50.5993 75.4351 50.9037 75.2037 51.0052C74.7192 51.2169 73.9946 51.5434 73.2307 51.9228C72.4232 52.3242 72.1569 52.5801 72.026 52.6992C71.5283 53.158 71.5065 53.7712 71.4716 54.3447C71.4148 55.2711 71.2795 57.2828 71.2839 57.4328C71.3057 58.121 71.5283 58.721 72.1351 59.1842C72.9644 59.8194 74.0775 60.6576 74.2521 60.7944C74.8109 61.2311 75.8716 61.2355 76.3605 60.9841C77.4343 60.4326 79.7129 59.2459 79.7609 59.2151C79.8176 59.1842 79.9006 59.1886 79.9355 59.3033C79.9573 59.3783 79.9748 59.4312 79.9922 59.493C80.0228 59.6077 80.1232 59.7489 80.2323 59.8459C80.7387 60.2738 81.795 61.187 81.8649 61.2488C82.2315 61.562 82.5851 61.5576 82.9081 61.3811C83.7157 60.94 84.1478 60.6665 84.2176 60.6268C84.6105 60.415 84.4926 60.1768 84.1958 59.9121ZM79.643 57.2166C79.4597 57.3137 78.1022 58.0151 77.3601 58.3989C77.072 58.5489 76.6704 58.5577 76.391 58.4166C76.199 58.3195 75.5704 57.9842 75.2168 57.8122C74.92 57.6666 74.7498 57.3578 74.6887 56.9608C74.6581 56.7446 74.5883 55.5314 74.5446 54.8079C74.5097 54.53 74.597 54.08 74.8764 53.8506C75.0291 53.7271 75.6184 53.4139 75.9196 53.2374C76.3256 53.0036 76.8101 52.8139 77.0895 52.708C77.4998 52.5448 77.8839 52.5889 78.7002 52.8095C78.9053 52.8669 79.5645 53.0389 79.7085 53.1271C79.9486 53.3036 79.9791 53.5859 79.9791 53.7889C79.9791 53.9345 79.9835 55.8358 79.9879 56.5417C79.9966 56.8328 79.9006 57.0843 79.643 57.2166ZM146.289 46.3113C146.289 45.8437 146.01 45.6496 145.46 45.6496H144.596V47.948H144.971V46.9642H145.325L145.914 47.948H146.337L145.7 46.9378C146.036 46.8981 146.289 46.726 146.289 46.3113ZM144.971 46.6422V45.9716H145.421C145.643 45.9716 145.914 46.0025 145.914 46.2804C145.914 46.6157 145.665 46.6422 145.386 46.6422H144.971ZM43.6048 46.8319C43.1421 46.1966 42.9152 46.1702 42.0116 46.1746C41.8544 46.1746 40.0386 46.1966 39.3532 46.2231C38.6679 46.2496 38.1834 46.4084 37.7643 46.7613C37.5024 46.9819 36.8913 47.7495 36.8215 47.8289C36.7691 47.8862 36.6687 48.0715 36.5552 48.0495C36.4286 48.023 36.4286 47.8995 36.4461 47.6877C36.529 46.7084 36.7822 42.6895 36.8564 41.4145C36.8957 40.9822 36.708 40.6425 36.2278 40.6425C36.0401 40.6425 34.1762 40.7043 33.4036 40.7043C32.9802 40.7043 32.727 41.0043 32.7358 41.4189C32.7401 41.6175 32.954 57.6401 32.9889 60.19C32.9933 60.4062 33.1155 60.5209 33.3425 60.5165C33.5215 60.5165 34.8135 60.5032 35.3985 60.4944C35.5731 60.4944 35.6997 60.3576 35.6997 60.2297C35.6997 60.1238 36.0925 53.8021 36.1929 51.6493C36.2235 50.8949 36.4854 49.9685 36.804 49.6994C37.127 49.4347 37.8167 48.8921 38.1179 48.6759C38.4147 48.4597 38.6374 48.4509 38.8862 48.4509C39.2267 48.4509 39.7985 48.4642 40.0866 48.473C40.4707 48.4862 40.4751 48.5171 40.7937 48.7465C40.9509 48.8612 41.1822 49.0244 41.3786 49.1788C41.7104 49.4303 41.8632 49.6376 41.8544 50.1141C41.8544 50.2155 42.0509 57.799 42.0858 59.6606C42.0858 60.1724 42.1687 60.5606 42.6794 60.5606C42.8148 60.5606 43.5961 60.5694 44.1199 60.5694C44.6044 60.5694 44.635 60.1679 44.6743 59.7224C44.683 59.5989 45.0628 52.0551 45.2374 50.1141C45.3029 49.2979 45.1588 48.9053 44.7747 48.3715C44.6743 48.2392 44.0937 47.4892 43.6048 46.8319ZM145.377 44.6835C144.29 44.6835 143.356 45.5128 143.356 46.7613C143.356 47.9436 144.198 48.8391 145.377 48.8391C146.451 48.8391 147.389 48.0142 147.389 46.7613C147.389 45.5084 146.455 44.6835 145.377 44.6835ZM145.377 48.4774C144.395 48.4774 143.792 47.7054 143.792 46.7613C143.792 45.7511 144.486 45.0452 145.377 45.0452C146.254 45.0452 146.948 45.7511 146.948 46.7613C146.948 47.776 146.259 48.4774 145.377 48.4774ZM110.186 58.593C109.4 58.6327 109.033 58.6592 108.828 58.6813C108.392 58.7254 108.138 58.8092 108.034 59.5856C107.911 60.4679 107.972 60.9929 107.156 61.3458C106.357 61.6943 106.082 61.7473 105.694 61.7914C104.991 61.8752 104.808 61.9017 104.14 61.7649C103.228 61.5752 102.874 61.2885 102.39 60.4724C102.272 60.2782 101.975 59.793 101.7 59.0165C101.652 58.8886 101.569 58.5401 101.578 58.3504C101.678 56.7049 101.901 49.3685 101.909 49.17C101.949 48.4642 102.049 47.9127 101.508 47.348C100.945 46.7569 100.29 46.0555 100.185 45.954C99.6744 45.4555 99.1724 45.2967 98.2863 45.2923C97.1907 45.2879 95.03 45.2217 94.8597 45.2173C94.1133 45.1996 94.1788 45.182 93.4891 45.5525C92.8212 45.9099 91.9133 46.6069 91.6514 46.7569C91.228 46.9995 91.0839 47.3127 91.0272 47.7495C90.9443 48.3495 90.7522 49.0288 90.6823 49.6641C90.6256 50.1582 90.8308 50.3699 91.2367 50.3479C91.372 50.3391 92.5375 50.2596 93.2054 50.2199C93.6113 50.1979 93.8427 50.0964 93.9911 49.5979C94.026 49.4788 94.3752 48.5568 94.5498 48.0009C94.6764 47.6127 94.8903 47.3436 95.2308 47.2951C95.7851 47.2201 95.8899 47.176 96.2435 47.1319C96.9113 47.0525 97.0379 47.123 97.2518 47.2422C97.3828 47.3083 97.8105 47.6304 98.2165 47.8951C98.4871 48.0759 98.7098 48.2656 98.6923 48.8259C98.6879 48.9759 98.7403 50.2508 98.7185 50.489C98.701 50.7273 98.8756 51.3581 98.4217 51.3052C97.8673 51.239 97.2693 50.864 96.1431 50.7096C95.9554 50.6832 95.5058 50.6082 95.1391 50.7317C94.6022 50.9081 93.6724 51.2743 93.5633 51.3228C92.6816 51.7022 92.5026 51.8081 91.3677 52.3904C90.6212 52.7698 90.2677 53.2242 90.1716 54.0447C90.0625 54.9712 89.9708 57.3225 89.9621 57.4725C89.9097 58.293 90.272 58.9548 90.8875 59.418C91.7256 60.0488 92.6641 60.7679 92.8954 60.9311C93.4498 61.3326 94.349 61.5046 95.0998 61.1076C96.1431 60.5606 98.234 59.5018 98.282 59.4753C98.3387 59.4445 98.5351 59.2945 98.5744 59.4092C98.6006 59.4842 98.6879 59.7224 98.7054 59.7841C98.7403 59.8944 98.8844 60.0356 98.9891 60.1415C99.526 60.6929 99.9625 61.1694 100.386 61.6193C101.381 62.6693 101.521 62.7531 102.726 63.0443C104.035 63.3575 104.122 63.3751 104.371 63.4237C104.62 63.4678 104.83 63.6266 106.707 63.3354C108.584 63.0443 108.701 63.0002 108.894 62.9649C109.09 62.934 109.845 62.8678 110.155 61.5973C110.465 60.3268 110.635 59.6209 110.679 59.3518C110.727 59.0783 110.971 58.5533 110.186 58.593ZM98.6617 56.427C98.6443 56.9122 98.6355 57.221 98.2732 57.3887C98.0855 57.4725 96.9157 58.1034 96.1911 58.4872C95.8419 58.6724 95.4403 58.7651 94.9907 58.5357C94.5673 58.3239 94.4058 58.271 93.8863 57.9622C93.5327 57.7637 93.3363 57.4416 93.3145 57.0446C93.2839 56.5461 93.2054 55.3417 93.1835 54.8918C93.1617 54.4506 93.2796 54.1286 93.8121 53.7933C94.0522 53.6433 95.0736 53.1316 95.4185 52.9683C95.8463 52.761 96.4574 52.7389 96.7062 52.7875C96.9157 52.8316 97.9153 53.1139 98.2558 53.2154C98.5657 53.308 98.6705 53.6786 98.6661 53.983C98.6443 54.5565 98.6661 56.1976 98.6617 56.427ZM114.097 46.3687C113.769 46.0113 113.35 45.9143 112.918 45.9143C111.98 45.9143 110.683 45.9849 110.212 46.0113C109.496 46.0555 109.173 46.2363 108.841 46.629C108.488 47.0436 107.986 47.5863 107.898 47.6657C107.422 48.1024 107.37 47.9215 107.392 47.4319C107.401 47.1451 107.475 46.3113 107.505 45.9496C107.553 45.3143 107.156 45.1555 106.641 45.1511C106.021 45.1467 105.27 45.1423 104.947 45.1423C103.939 45.1423 103.747 45.1246 103.747 46.351C103.747 47.2554 103.791 56.7005 103.795 59.5989C103.795 60.1415 104.136 60.4547 104.502 60.4547C104.869 60.4547 105.768 60.4415 106.039 60.4415C106.314 60.4415 106.619 60.1018 106.659 59.5636C106.816 57.2828 107.204 51.089 107.239 50.7184C107.283 50.2597 107.488 49.9156 107.759 49.6994C108.243 49.3112 108.902 48.8303 109.112 48.6318C109.347 48.42 109.609 48.3495 109.928 48.3495C110.443 48.3495 110.788 48.3627 111.12 48.3803C111.39 48.3892 111.604 48.4333 111.84 48.5744C112.102 48.7288 112.477 49.1921 112.604 49.3156C112.818 49.5362 112.922 49.6288 112.922 50.0435C112.922 52.0948 113.08 59.0518 113.08 59.5415C113.08 60.1283 113.294 60.4238 113.603 60.4371C114.036 60.4547 114.625 60.4503 114.834 60.4503C115.192 60.4503 115.402 60.1988 115.45 59.7489C115.694 57.6269 116.253 51.1243 116.327 50.4096C116.454 49.2185 116.244 48.9671 115.672 48.248C115.048 47.4848 114.524 46.8407 114.097 46.3687ZM130.357 59.9209C129.946 59.5592 129.375 59.0915 129.13 58.8621C129.012 58.7519 128.942 58.6283 128.96 58.4386C129.113 56.7843 129.802 49.3288 129.824 49.1303C129.89 48.42 129.698 47.9039 129.165 47.3304C128.615 46.7348 127.995 46.0643 127.895 45.9628C127.349 45.4158 126.603 45.1334 125.76 45.129C124.651 45.1246 122.779 45.0496 122.609 45.0452C121.853 45.0276 121.365 45.1423 120.684 45.5702C120.099 45.9408 119.396 46.3907 119.274 46.4746C118.863 46.7657 118.628 47.0701 118.553 47.5113C118.436 48.2039 118.248 49.3068 118.222 49.4744C118.147 49.9729 118.353 50.1847 118.759 50.1626C118.898 50.1538 120.081 50.0744 120.758 50.0347C121.168 50.0126 121.36 49.8979 121.526 49.395C121.565 49.2715 121.923 48.2392 122.115 47.6789C122.259 47.2863 122.434 47.176 122.774 47.1186C123.233 47.0348 123.84 46.9554 123.962 46.9422C124.315 46.8981 124.542 46.9378 124.839 47.1319C124.961 47.2113 125.712 47.7407 125.808 47.8112C125.939 47.9039 126.188 48.1686 126.188 48.548C126.188 48.698 126.219 50.8949 126.219 50.8949C126.219 50.8949 126.21 51.2655 125.773 51.1243C125.153 50.9214 123.565 50.3743 122.866 50.5155C122.399 50.6082 121.596 50.9126 121.369 51.014C120.884 51.2258 120.16 51.5522 119.396 51.9316C118.588 52.3331 118.322 52.5889 118.191 52.708C117.694 53.1668 117.672 53.7845 117.632 54.3536C117.576 55.2756 117.44 57.2916 117.445 57.4416C117.467 58.1298 117.689 58.7298 118.296 59.193C119.125 59.8283 120.238 60.6665 120.413 60.8032C120.972 61.24 122.032 61.2444 122.521 60.9929C123.595 60.4415 125.874 59.2548 125.922 59.2283C125.978 59.1974 126.061 59.2018 126.096 59.3165C126.123 59.3915 126.136 59.4445 126.153 59.5062C126.184 59.6209 126.28 59.7665 126.398 59.8636C126.904 60.2915 127.96 61.2047 128.03 61.262C128.392 61.5752 128.75 61.5708 129.073 61.3944C129.881 60.9532 130.313 60.6753 130.378 60.64C130.771 60.4194 130.653 60.1812 130.357 59.9209ZM125.804 57.221C125.621 57.3181 124.263 58.0195 123.521 58.4033C123.233 58.5533 122.827 58.5577 122.552 58.421C122.36 58.3239 121.731 57.9931 121.382 57.8166C121.085 57.671 120.915 57.3622 120.854 56.9652C120.823 56.749 120.753 55.5358 120.714 54.8124C120.679 54.5344 120.767 54.0844 121.046 53.855C121.199 53.7315 121.784 53.4183 122.089 53.2418C122.495 53.008 122.98 52.8183 123.259 52.7125C123.669 52.5492 124.053 52.5889 124.87 52.8139C125.075 52.8713 125.734 53.0433 125.874 53.1316C126.114 53.308 126.144 53.5859 126.144 53.7933C126.144 53.9389 126.149 55.8402 126.153 56.5461C126.157 56.8372 126.061 57.0887 125.804 57.221ZM87.247 44.41C86.1208 44.41 85.2085 45.332 85.2085 46.4701C85.2085 47.6083 86.1208 48.5303 87.247 48.5303C88.3732 48.5303 89.2855 47.6083 89.2855 46.4701C89.2855 45.3364 88.3689 44.41 87.247 44.41ZM88.2728 49.792C87.5919 49.8008 86.5704 49.8097 86.195 49.8097C85.6145 49.8097 85.3744 49.9729 85.3831 50.6126C85.3875 51.142 85.4006 57.9622 85.405 60.2827C85.405 60.7635 85.68 61.0547 86.1077 61.0679C86.5399 61.0811 86.649 61.0723 87.1859 61.09C87.7272 61.1076 87.9716 60.8209 88.0153 60.34C88.2204 57.9445 88.8359 50.767 88.8665 50.4449C88.9014 50.0567 88.6526 49.7876 88.2728 49.792ZM141.75 52.8272C141.435 52.3507 141.335 52.3728 139.855 51.9757C139.021 51.7507 136.241 50.9876 135.56 50.7934C134.6 50.5199 134.495 50.3655 134.407 49.6112C134.381 49.3641 134.355 48.998 134.32 48.5215C134.29 48.0804 134.338 47.9568 134.722 47.7407C134.966 47.6039 135.813 47.1098 136.171 46.9157C136.612 46.6775 136.965 46.7789 137.498 46.9951C137.773 47.1054 138.642 47.476 138.969 47.6127C139.275 47.7407 139.27 47.8377 139.632 48.5656C139.803 48.9053 140.091 48.848 140.309 48.7509C140.54 48.6494 141.623 48.0671 141.85 47.9436C142.278 47.701 142.365 47.5157 142.208 47.2863C141.99 46.9686 141.946 46.9289 141.784 46.704C141.606 46.4613 141.475 46.3113 141.143 45.9011C140.763 45.4334 140.811 45.4776 140.017 45.3143C139.462 45.1952 137.223 44.7364 136.551 44.6041C136.171 44.5291 135.97 44.582 135.586 44.7496C135.202 44.9173 133.665 45.6143 133.255 45.8084C132.295 46.2628 132.129 46.2716 132.011 46.501C131.841 46.8319 131.911 46.6687 131.474 47.5421C130.963 48.57 130.819 48.7686 130.924 49.1215C131.103 49.7347 131.47 50.6655 131.775 51.539C132.085 52.4345 132.103 52.5536 133.905 53.0345C134.944 53.3124 138.087 54.1462 138.467 54.2786C139.087 54.4859 139.157 54.5874 139.419 55.1609C139.532 55.4167 139.694 55.8226 139.781 56.0476C139.925 56.4226 140.121 56.7887 140.043 57.2563C139.942 57.8343 139.357 57.9975 139.034 58.1783C138.65 58.3945 137.804 58.8224 137.35 59.0298C136.76 59.2989 136.682 59.3783 135.874 58.9813C135.18 58.6416 134.971 58.5092 134.49 58.2622C134.194 58.1078 134.22 58.1475 133.98 57.8784C133.775 57.649 133.456 57.3181 133.211 57.0137C132.853 56.5726 132.565 56.6873 132.159 56.8946C131.832 57.0622 130.653 57.6798 130.352 57.8475C130.073 58.0019 130.073 58.271 130.252 58.4519C130.584 58.7916 131.343 59.4974 131.609 59.7356C132.129 60.2077 132.53 60.5738 132.993 60.7017C133.91 60.9532 135.468 61.3635 136.52 61.637C137.786 61.9634 137.489 61.884 138.58 61.4429C138.956 61.2929 141.038 60.4415 141.531 60.19C142.125 59.89 142.204 59.8106 142.487 58.8092C142.627 58.3195 143.015 56.9299 143.146 56.4623C143.304 55.8976 143.338 55.452 143.037 54.9403C142.858 54.6579 142.025 53.2463 141.75 52.8272Z" fill="#E42313"/>
</svg>
