<svg width="176" height="104" viewBox="0 0 176 104" fill="none" xmlns="http://www.w3.org/2000/svg">
<path fill-rule="evenodd" clip-rule="evenodd" d="M88.1179 31.9246C102.902 31.9246 114.983 43.4611 114.983 57.5919C114.983 71.7221 102.902 83.2586 88.1179 83.2586C73.3161 83.2586 61.2539 71.7221 61.2539 57.5919C61.2546 43.4611 73.3168 31.9246 88.1179 31.9246Z" fill="black"/>
<path fill-rule="evenodd" clip-rule="evenodd" d="M88.1183 32.7952C102.431 32.7952 114.095 43.9331 114.095 57.5919C114.095 71.25 102.431 82.3886 88.1183 82.3886C73.8069 82.3886 62.125 71.2508 62.125 57.5919C62.1257 43.9324 73.8069 32.7952 88.1183 32.7952Z" fill="#FFF22D"/>
<path fill-rule="evenodd" clip-rule="evenodd" d="M121.203 61.3287C119.824 77.6179 105.294 90.4971 87.6818 90.4971C71.828 90.4971 58.4775 80.0669 54.9582 66.1357L58.8402 65.8457C63.3931 77.5819 74.6213 85.9082 87.6818 85.9082C102.283 85.9082 114.582 75.4963 117.846 61.5834L121.203 61.3287ZM53.1082 39.525V37.04H55.0669V39.525H53.1082ZM53.1082 33.1221V29.5491C53.4342 29.7664 53.7249 30.1107 53.7249 30.6554V33.1228H53.1082V33.1221ZM33.6815 34.7907H33.8268C36.6928 34.8634 36.0395 32.6684 36.0395 28.4238C36.0395 24.2335 36.6201 22.1295 33.6815 22.1112V17.5039H36.4388C40.1938 17.5039 42.7874 20.0615 42.7874 21.3499L42.7147 35.7524C42.7147 37.8747 40.4471 39.5257 36.8558 39.5257H33.6815V34.7907ZM53.1082 29.5484V33.1213L51.5299 33.1397C51.5116 31.507 51.1129 31.38 50.5682 31.38C50.0243 31.3984 49.6066 31.7794 49.6066 33.1213V37.1487H50.5139V39.525H45.2173V37.1487H45.8516V31.852H45.2173V29.4574H49.4436V30.6914C49.6433 30.2018 50.7136 29.2401 52.0915 29.1858C52.2016 29.1858 52.6906 29.2761 53.1082 29.5484ZM53.1082 37.04H52.4909V39.525H53.1082V37.04ZM31.2501 34.7364L33.6808 34.7907V39.525H22.9062V35.1167H23.6132C24.2666 35.1533 24.5206 34.7357 24.5206 34.2827V22.7462C24.5389 22.1655 24.1579 22.0025 23.5229 21.9482L22.9062 21.9115V17.5032H33.6808V22.1104H31.2494V34.7364H31.2501Z" fill="black"/>
<path fill-rule="evenodd" clip-rule="evenodd" d="M113.714 61.9453C111.592 73.1735 101.252 81.7531 88.8995 81.7531C79.7752 81.7531 71.758 77.0915 67.332 70.1439C71.341 73.2822 78.5243 81.8801 93.7975 79.3041C87.9025 77.7984 80.6649 77.0548 73.409 69.7988C90.4955 69.9992 102.867 66.0446 113.714 61.9453Z" fill="black"/>
<path fill-rule="evenodd" clip-rule="evenodd" d="M101.139 30.2194H101.231C101.195 30.4191 101.175 30.6004 101.139 30.8001V30.2194ZM101.139 31.8161L102.101 32.7954C101.848 34.718 101.592 36.623 101.339 38.5456L104.187 38.7086C104.948 38.0736 105.71 37.421 106.472 36.786L109.103 38.7813C109.901 38.056 110.681 37.3123 111.479 36.5687C111.134 36.0247 110.772 35.4984 110.409 34.9544C110.499 34.4647 110.607 33.9567 110.717 33.4671L111.116 33.9207L113.22 34.1021C113.382 33.1411 113.564 32.1611 113.727 31.2001C112.749 30.7288 111.787 30.2744 110.807 29.8038C109.465 29.7671 108.122 29.7128 106.78 29.6768C106.907 30.3845 107.034 31.0738 107.18 31.7808L107.197 31.9621L106.562 35.2091C106.218 35.1547 105.873 35.0821 105.529 35.0277C105.673 34.3201 105.8 33.5948 105.945 32.8871L106.236 30.9461L102.045 29.4948C101.738 30.1658 101.429 30.8191 101.139 31.4901V31.8161H101.139ZM103.842 25.5578L104.985 25.2855L105.166 25.2671L105.384 25.2855L105.602 25.3398L105.802 25.4301L105.984 25.5571L106.128 25.7201L106.237 25.9197C106.328 26.1554 106.382 26.3911 106.437 26.6451L106.581 27.3704V27.5884L106.508 27.8064L106.418 28.0061L106.291 28.1691L106.128 28.3144L105.928 28.4414C105.439 28.6044 104.913 28.6954 104.423 28.8224L104.241 28.8407H104.005L103.787 28.7681L103.605 28.6771L103.425 28.5501L103.279 28.3871L103.152 28.1874C103.025 27.7881 102.934 27.3527 102.843 26.9174L102.807 26.7544L102.824 26.5188L102.879 26.3007L102.988 26.1011L103.115 25.9381L103.277 25.7927L103.459 25.6657L103.842 25.5578ZM74.9464 31.8704C75.4544 32.0517 75.9617 32.233 76.4697 32.3967L76.1974 34.337C76.052 35.063 75.9074 35.7883 75.7621 36.496L77.1407 36.714L77.7941 33.4127L77.7581 33.2498L77.3771 31.1274L81.4044 31.2544C82.3654 31.7258 83.327 32.1978 84.3063 32.6507L84.1793 30.1107L83.0363 27.6984C84.451 26.4284 85.884 25.1585 87.2993 23.8892L87.5533 28.6594C88.8953 27.8247 90.2556 26.9724 91.5799 26.1385C91.6886 27.6441 91.7796 29.1314 91.8889 30.6371L94.6822 25.3765L98.4732 25.5218V27.7888L96.8956 28.8048C96.5329 29.0764 96.1886 29.3304 95.8245 29.5844L93.7932 34.9177L96.7312 32.8497L96.1512 32.6324L96.3692 30.2194H101.14V30.8001C100.831 32.432 100.542 34.0647 100.234 35.6797L100.905 36.913C100.306 38.2373 99.6889 39.5433 99.0729 40.8676L97.2949 39.0896L95.3709 39.8516C94.6463 39.2533 93.9195 38.6367 93.1949 38.0376L92.9042 36.7676L89.7292 39.8516L88.9863 36.786L88.8593 36.8763V38.092L86.8633 39.0896C86.0653 38.0553 85.249 37.0216 84.451 35.988L84.3056 32.7227L83.7976 35.571L81.6944 35.389L81.2957 34.9177C81.1871 35.4257 81.0961 35.933 80.9874 36.4233L82.0754 38.0376L79.6991 40.251L76.8874 38.1103L74.9471 39.743V31.8704H74.9464ZM101.139 31.4894C101.104 31.5621 101.066 31.6347 101.031 31.725L101.139 31.8154V31.4894ZM74.9464 30.2194L76.1798 29.9111L76.3611 29.7841L76.5241 29.6387L76.6694 29.4574L76.7597 29.2577L76.814 29.0581L76.8317 28.84L76.6687 28.0964C76.6144 27.8607 76.5601 27.6067 76.469 27.3711L76.3604 27.1897L76.2157 27.0268L76.052 26.8998L75.8524 26.7911L75.6344 26.7368L75.4163 26.7184L75.235 26.7544L74.945 26.8271V30.2194H74.9464ZM71.6451 39.5976C71.8632 37.8196 72.0988 36.0423 72.3352 34.2643L71.2649 33.1764L72.2801 30.9638C73.1691 31.2721 74.0581 31.5621 74.9471 31.8704V39.7423L74.4208 40.1776L72.1891 40.0506L72.4791 40.2862C70.9587 41.316 69.441 42.3499 67.9262 43.3879C67.4908 42.1905 67.0555 40.9756 66.6202 39.7782C66.4022 39.7782 66.1849 39.7606 65.9668 39.7606L64.6609 43.8055L60.8516 40.5762L61.7039 38.4356L63.0099 38.7079L64.5339 35.0073L65.8215 31.706L66.8735 29.6747L67.8711 28.1874L70.2658 27.9877V38.4363L71.6451 39.5976ZM74.9464 26.8271L74.0941 27.0268L73.7131 27.1354L73.5135 27.2441L73.3505 27.3894L73.2235 27.5707L73.1325 27.7697L73.0598 27.9877V28.2057L73.0781 28.3871C73.1692 28.8041 73.2595 29.2577 73.4048 29.6564L73.5135 29.856L73.6588 30.019L73.8401 30.146L74.0398 30.2363L74.2571 30.2907L74.4751 30.309L74.6565 30.2907L74.9471 30.218V26.8271H74.9464Z" fill="#FFF22D"/>
<path fill-rule="evenodd" clip-rule="evenodd" d="M95.6283 38.8171V37.1485C95.9175 37.1661 96.1906 37.1852 96.4799 37.2028C96.7705 36.7132 97.0598 36.2419 97.3505 35.7515C97.2059 35.6245 97.0598 35.5159 96.9152 35.4072C96.4799 35.6972 96.0636 36.0055 95.6283 36.3138V34.6995C96.3176 34.2099 97.0062 33.7386 97.6955 33.2482C97.7132 32.9392 97.7506 32.6132 97.7689 32.3049C97.5433 32.2093 97.3132 32.1246 97.0796 32.0509C97.1156 31.7242 97.1515 31.4159 97.1692 31.1075H100.182C99.8912 32.6675 99.6182 34.2459 99.3289 35.8242C99.5286 36.2052 99.7268 36.5862 99.9272 36.9488C99.5469 37.7468 99.1828 38.5631 98.8025 39.3611C98.3848 38.9258 97.9495 38.5088 97.5142 38.0735C96.8799 38.3098 96.2625 38.5638 95.6283 38.8171ZM95.6283 28.6593V26.3013C96.2802 26.3189 96.9512 26.3373 97.6045 26.374V27.3173L96.4086 28.0793C96.1355 28.2783 95.8822 28.4603 95.6283 28.6593ZM102.502 30.5826C103.428 30.8909 104.353 31.2176 105.26 31.5259L105.098 32.7409C104.898 33.7393 104.698 34.7362 104.498 35.7522C105.006 35.8249 105.514 35.9152 106.04 36.0062C105.316 36.6057 104.597 37.2103 103.882 37.8202C103.368 37.781 102.854 37.7509 102.339 37.7299C102.575 35.9702 102.793 34.2289 103.029 32.4693C102.702 32.1602 102.394 31.8526 102.086 31.5259C102.231 31.2169 102.358 30.8909 102.502 30.5826ZM103.899 26.4467C104.317 26.3563 104.735 26.247 105.15 26.156C105.215 26.1396 105.284 26.1494 105.342 26.1833C105.4 26.2173 105.442 26.2726 105.459 26.3373C105.55 26.6823 105.622 27.0083 105.695 27.3533C105.704 27.3854 105.707 27.419 105.702 27.4521C105.698 27.4851 105.687 27.517 105.67 27.5458C105.653 27.5746 105.631 27.5997 105.604 27.6196C105.577 27.6395 105.547 27.6538 105.514 27.6616C105.097 27.7526 104.679 27.8613 104.262 27.9523C104.117 27.9883 103.973 27.898 103.953 27.771C103.863 27.4267 103.791 27.1 103.7 26.7733C103.683 26.7035 103.695 26.6299 103.732 26.5687C103.769 26.5074 103.83 26.4635 103.899 26.4467ZM107.853 30.5826C108.761 30.6186 109.686 30.6369 110.593 30.6729C111.319 31.0179 112.026 31.3623 112.753 31.7066C112.662 32.1962 112.571 32.6675 112.498 33.1579C112.171 33.1402 111.864 33.1036 111.555 33.0852C111.32 32.8129 111.083 32.5589 110.866 32.3056C110.575 32.3959 110.285 32.4686 109.995 32.5596C109.832 33.4302 109.651 34.2825 109.487 35.1532C109.777 35.5702 110.049 36.0055 110.34 36.4408C109.904 36.8402 109.487 37.2388 109.051 37.6382C108.453 37.1845 107.854 36.7125 107.238 36.2595L108.109 31.9606C108.014 31.503 107.929 31.0436 107.853 30.5826ZM66.8592 31.5803C67.2945 30.6913 67.7849 29.839 68.3649 29.0403C68.7099 29.0043 69.0542 28.9676 69.3992 28.95V38.8538L71.0312 40.2141C70.1422 40.8308 69.2532 41.4298 68.3649 42.0281C67.9839 40.9938 67.6212 39.9601 67.2402 38.9265C67.1132 38.9265 66.9862 38.9265 66.8592 38.9082V36.7315C67.0949 36.7859 67.3489 36.8218 67.5845 36.8585L67.1492 34.6276C67.0589 34.8265 66.9502 35.0086 66.8592 35.2075V31.5803ZM95.6283 26.3013V28.6593C95.4462 28.7863 95.2839 28.9133 95.1019 29.0403L92.4356 36.0062C91.6912 36.7132 90.9666 37.4392 90.2223 38.1645C89.9866 37.2035 89.7686 36.2602 89.533 35.3169C89.0242 35.6979 88.4979 36.0605 87.9906 36.4415V37.5478L87.1199 37.9832C86.521 37.2047 85.9163 36.4307 85.306 35.6612C85.2333 33.7386 85.143 31.8159 85.052 29.8933C84.7436 29.2406 84.417 28.5697 84.1086 27.9163C84.9066 27.191 85.7229 26.4833 86.5209 25.7573C86.6296 27.9163 86.7566 30.0746 86.8652 32.2146H87.4643C87.8086 31.7609 88.1536 31.3079 88.4972 30.8359C88.3526 30.3463 88.2072 29.8742 88.0626 29.3846C88.9876 28.8046 89.9125 28.2239 90.8192 27.6616C90.9278 29.3493 91.0372 31.0356 91.1459 32.7409C91.2905 32.8496 91.4365 32.9589 91.5812 33.0859C92.7785 30.8183 93.9942 28.5506 95.1915 26.2837C95.3376 26.283 95.4822 26.283 95.6283 26.3013ZM95.6283 34.6995C94.9558 35.1708 94.3039 35.6245 93.6506 36.0958C93.7592 36.5855 93.8686 37.0575 93.9949 37.5471C94.5022 37.9825 95.0285 38.4178 95.5372 38.8531C95.5732 38.8348 95.5909 38.8171 95.6283 38.8171V37.1485C95.5196 37.1485 95.3912 37.1309 95.2839 37.1309C95.3376 36.8952 95.3912 36.6588 95.4462 36.4408C95.5196 36.3865 95.5732 36.3505 95.6283 36.3138V34.6995ZM72.7548 32.0516C73.6615 32.3599 74.5865 32.6682 75.5122 32.9942C75.4395 33.3935 75.3852 33.7929 75.3308 34.1915C75.1311 35.2068 74.9322 36.2052 74.7318 37.2028C75.2398 37.2931 75.7654 37.3842 76.2742 37.4752C75.5672 38.0735 74.8412 38.6725 74.1335 39.2708C73.6072 39.2532 73.0999 39.2165 72.5735 39.1805C72.8092 37.4392 73.0448 35.6972 73.2628 33.9375L72.3195 32.9942C72.4642 32.6682 72.6088 32.3599 72.7548 32.0516ZM74.1328 27.9156C74.5505 27.807 74.9675 27.7159 75.3844 27.6073C75.5298 27.5889 75.6751 27.6616 75.7111 27.807C75.7838 28.1336 75.8565 28.4779 75.9468 28.8046C75.9563 28.8381 75.9585 28.8732 75.9534 28.9076C75.9482 28.942 75.9358 28.9749 75.9169 29.0041C75.898 29.0333 75.873 29.0581 75.8438 29.0769C75.8145 29.0956 75.7815 29.1079 75.7471 29.1129C75.3301 29.2216 74.9124 29.3126 74.4954 29.4213C74.3684 29.4573 74.2238 29.3669 74.1871 29.2399C74.1144 28.8956 74.0241 28.569 73.9515 28.2239C73.9155 28.0969 74.0058 27.9516 74.1328 27.9156ZM78.4317 32.0516C79.3567 32.0692 80.2641 32.1059 81.189 32.1243C81.8967 32.4686 82.622 32.8136 83.3297 33.1579C83.254 33.6493 83.1693 34.1392 83.0757 34.6276C82.7674 34.5909 82.4407 34.5732 82.1324 34.5365C81.8967 34.2825 81.6787 34.0285 81.4431 33.7745C81.1524 33.8479 80.8624 33.9375 80.5907 34.0285C80.4094 34.8809 80.2457 35.7515 80.0644 36.6038C80.3551 37.0391 80.6451 37.4745 80.9351 37.8922C80.4997 38.2908 80.0644 38.7085 79.6291 39.1071C79.0301 38.6358 78.4317 38.1821 77.8334 37.7285C78.1234 36.2955 78.3951 34.8625 78.6857 33.4295C78.5947 32.9589 78.5228 32.5052 78.4317 32.0516ZM61.9069 40.3052C62.0156 40.0145 62.1426 39.7428 62.2512 39.4528C62.6866 39.5255 63.1035 39.6158 63.5396 39.7068C64.1379 38.2372 64.7545 36.7866 65.3536 35.3169C65.8072 34.0469 66.2793 32.7952 66.8592 31.5803V35.2082C66.6052 35.6795 66.3696 36.1332 66.1156 36.6045C66.3689 36.6589 66.6052 36.6955 66.8592 36.7315V38.9082L65.3536 38.8538C64.9726 39.9968 64.6099 41.1398 64.2289 42.2821C63.4504 41.6285 62.6764 40.9695 61.9069 40.3052ZM148.395 45.6377L153.022 42.4091C153.584 41.8101 153.928 41.2661 154.002 40.7038L148.396 44.6401V45.6377H148.395ZM148.395 43.6241V42.6081L153.566 38.9801C153.728 39.2525 153.837 39.5065 153.91 39.7421L148.395 43.6241ZM148.395 41.6104V40.5951L152.64 37.6205L153.113 38.2915L148.395 41.6104ZM148.395 39.5791L152.15 36.9488L150.428 34.5365C149.811 33.9742 149.157 33.6842 148.395 33.7569V39.5791ZM143.842 48.8304L148.395 45.6384V44.6408L143.842 47.8151V48.8304ZM148.395 33.7569V39.5798L147.47 40.2325L146.781 39.1988C146.399 38.7452 145.692 38.7812 145.039 39.2532L143.842 40.1055V36.3865L146.526 34.5549C147.235 34.0652 147.833 33.8112 148.395 33.7569ZM148.395 40.5951V41.6104L143.842 44.7854V43.7694L145.548 42.5905C145.784 42.7174 146.056 42.7901 146.309 42.7534L147.489 41.9188C147.76 41.6831 147.851 41.3197 147.815 40.9931L148.395 40.5951ZM148.395 42.6081V43.6241L143.842 46.7984V45.8007L148.395 42.6081ZM143.842 42.7718L144.839 42.0648C144.712 41.9562 144.621 41.8468 144.53 41.7565L143.841 42.2278V42.7718H143.842ZM143.842 34.3185L143.859 34.3362L147.741 31.5612L145.057 27.6976L143.841 28.5683V34.3185H143.842ZM142.862 48.5037L143.335 49.193L143.842 48.8304V47.8151L142.862 48.5037ZM143.842 28.569V34.3185C143.334 34.1555 142.826 33.6475 142.337 33.8105L140.94 34.7715C140.649 35.1892 140.577 35.2978 140.904 35.8418L141.647 36.9121C142.102 37.2931 142.773 37.1845 143.335 36.7492L143.842 36.3858V40.1048L141.158 41.9914C139.96 42.6448 138.982 42.8804 137.529 41.4474L134.844 37.6558C134.573 37.2388 134.428 36.8211 134.409 36.4225V36.2228C134.447 35.6605 134.718 35.1158 135.262 34.5902L143.842 28.569ZM143.842 42.2278L140.25 44.7487L140.504 45.1114L143.841 42.7718V42.2278H143.842ZM143.842 43.7694V44.7854L141.448 46.4724L140.975 45.7824L143.842 43.7694ZM143.842 45.8014V46.7991L142.39 47.8327L141.919 47.1434L143.842 45.8014ZM60.1473 64.0492C59.8017 64.373 59.4179 64.6533 59.0043 64.8839C58.8773 64.9565 58.7319 65.0292 58.5866 65.0828V64.0492H60.1473ZM58.5873 63.2329V62.3982H67.0222V63.2329H58.5873ZM58.5873 61.5642V60.7479H67.0222V61.5642H58.5873ZM58.5873 59.9132V59.4786C59.2773 59.4419 59.8573 59.1336 60.2926 58.5346C60.7463 57.9546 60.9636 57.1566 60.9636 56.1406C60.9636 55.143 60.7456 54.3443 60.2926 53.7453C59.8573 53.1653 59.2773 52.857 58.5873 52.8203V48.3217C58.66 48.3577 58.7326 48.376 58.787 48.412C59.4763 48.7027 60.1473 49.2826 60.7823 50.1533V48.575H65.7889V58.1881C65.7346 59.4765 66.4232 59.4765 67.0222 59.4765V59.9111H58.5873V59.9132ZM67.0222 64.0492V64.8839H60.7823V64.0492H67.0222ZM58.5873 65.0828C57.989 65.3368 57.3363 65.4462 56.6103 65.4462L56.3387 65.4829C54.833 65.4645 53.5997 64.9932 52.6197 64.0499H58.5873V65.0828ZM58.5873 48.3224V52.821H58.5696C57.8076 52.8753 57.2277 53.202 56.8467 53.801C56.4654 54.4142 56.2411 55.1118 56.1933 55.8323V56.1406C56.1933 56.9929 56.393 57.7366 56.774 58.4076C57.155 59.0786 57.7533 59.4419 58.5696 59.4786H58.5873V59.9132H50.3887C50.1347 58.9163 50.0077 57.8452 50.0077 56.703C50.0077 56.449 50.0077 56.159 50.0261 55.8683C50.0437 55.5783 50.0804 55.2876 50.1164 54.9976C50.3095 53.2635 50.9195 51.6019 51.8944 50.1547C52.892 48.7034 54.3617 47.9781 56.3387 47.9781H56.6103C57.2996 47.9781 57.9706 48.0867 58.5873 48.3224ZM58.5873 60.7472V61.5635H50.9694C50.8607 61.3095 50.7514 61.0195 50.6427 60.7472H58.5873ZM58.5873 62.3982V63.2329H51.912C51.8217 63.0875 51.7307 62.9605 51.6404 62.8159C51.5455 62.6831 51.4606 62.5435 51.3864 62.3982H58.5873ZM113.168 61.8909V60.8932L114.837 60.4579L114.819 60.4763C114.366 61.0195 113.803 61.4916 113.168 61.8909ZM113.168 60.0402V59.1872L115.908 58.4436C115.817 58.7743 115.696 59.096 115.545 59.4045L113.168 60.0402ZM113.168 58.3349V57.4826L116.053 56.703C116.09 56.9929 116.09 57.2829 116.053 57.5553L113.168 58.3349ZM113.168 56.6119V54.798L115.508 54.1813L115.835 55.4513C115.89 55.5966 115.908 55.7413 115.943 55.869L113.168 56.6119ZM113.168 53.0207V46.5267C113.512 47.0894 113.769 47.7007 113.93 48.34L115.055 52.5127L113.168 53.0207ZM113.168 46.5267V53.0207L110.194 53.8186V44.3861C110.302 44.4228 110.43 44.4588 110.539 44.4947C111.681 44.8941 112.552 45.5651 113.168 46.5267ZM113.168 54.798V56.6119L110.793 57.2469C110.775 57.0473 110.719 56.8293 110.666 56.5936L110.375 55.5416L113.168 54.798ZM113.168 57.4826V58.3349L110.194 59.1329V59.0602C110.43 58.8789 110.611 58.6616 110.702 58.3892C110.738 58.2982 110.757 58.2079 110.775 58.1169L113.168 57.4826ZM113.168 59.1872V60.0402L110.194 60.8382V59.9859L113.168 59.1872ZM113.168 60.8925V61.8902C112.335 62.3799 111.438 62.7522 110.502 62.9965C110.393 63.0141 110.284 63.0508 110.194 63.0692V61.6912L113.168 60.8925ZM107.31 51.17L109.088 50.6987L108.906 50.0637C108.67 49.1387 108.38 48.5213 108.053 48.213C107.872 48.0317 107.618 47.923 107.31 47.923V44.1497C108.278 44.0417 109.257 44.1217 110.194 44.3854V53.8179L107.31 54.5799V51.17ZM110.194 59.0609V59.1336L109.921 59.207C110.012 59.1519 110.103 59.1152 110.194 59.0609ZM110.194 59.9859V60.8382L107.31 61.6179V60.7472L110.194 59.9859ZM110.194 61.6912V63.0692C109.178 63.3048 108.217 63.3958 107.31 63.3232V62.4709L110.194 61.6912ZM107.31 59.8949V59.0426L107.817 58.9156C107.872 58.9882 107.944 59.0602 108.017 59.1329C108.308 59.3692 108.652 59.4596 109.106 59.4236L107.31 59.8949ZM107.31 58.1896V57.9715C107.346 58.0449 107.364 58.0992 107.382 58.1712L107.31 58.1896ZM105.586 51.6237L107.31 51.17V54.5806L106.457 54.8163L107.183 57.5186C107.219 57.6816 107.273 57.8276 107.31 57.9723V58.1903L102.248 59.5513C102.192 59.4027 102.144 59.2513 102.104 59.0976L100.2 51.9503C100.062 51.4843 99.9822 51.003 99.9625 50.5174V50.1004C100.018 48.9574 100.435 47.9237 101.233 46.9988C102.231 45.8198 103.682 44.9851 105.55 44.4778C106.127 44.3198 106.715 44.2105 107.31 44.1511V47.9244C107.092 47.9061 106.82 47.9421 106.53 48.0148C105.351 48.3407 104.988 49.3391 105.424 51.0077L105.586 51.6237ZM107.31 59.0426L102.558 60.3126C102.685 60.5842 102.829 60.8206 102.993 61.0562L107.31 59.8949V59.0426ZM107.31 60.7472V61.6179L104.388 62.3975C104.097 62.2122 103.824 61.9995 103.573 61.7625L107.31 60.7472ZM107.31 62.4716V63.3239C106.704 63.2722 106.106 63.1442 105.532 62.9429L107.31 62.4716ZM92.5443 41.8284L94.1219 41.6831L94.5212 46.1817C94.7195 46.8344 95.0645 47.1794 95.8632 47.2337L96.2435 51.4967L95.1548 52.0047L94.8281 53.2387L95.1725 57.0656C95.3905 57.8643 96.0078 58.6256 97.2764 58.4986L97.3138 59.0609L92.5429 59.4786V41.8284H92.5443ZM92.5443 64.4485V63.6322L97.6772 63.1785L97.7506 63.9949L92.5443 64.4485ZM92.5443 62.7975V61.9629L97.5325 61.5275L97.6045 62.3439L92.5443 62.7975ZM92.5443 61.1282V60.3126L97.3865 59.8772L97.4599 60.7119L92.5443 61.1282ZM87.7013 59.8949L87.647 59.3509C88.8987 59.243 89.3876 58.3899 89.461 57.5553L89.1343 53.7276L88.608 52.567L87.4473 52.2587L87.0847 47.9957C87.8467 47.8144 88.1367 47.3967 88.2093 46.7257L87.8283 42.2278L92.545 41.8284V59.4786L87.7013 59.8949ZM92.5443 60.3126V61.1282L87.846 61.5459L87.7726 60.7296L92.5443 60.3126ZM92.5443 61.9629V62.7975L87.9913 63.1969L87.9186 62.3806L92.5443 61.9629ZM92.5443 63.6315V64.4478L88.1359 64.8465L88.0633 64.0118L92.5443 63.6315ZM134.665 54.0183V53.1477L138.165 51.8777L138.438 52.6397L134.665 54.0183ZM134.665 52.2587L137.875 51.0973L137.602 50.3177L134.665 51.388V52.2587ZM134.665 50.499V49.6284L137.022 48.7577L137.312 49.5373L134.665 50.499ZM134.665 48.7394V46.8344C135.027 47.6507 135.934 47.8144 136.551 47.4694L136.749 47.9774L134.665 48.7394ZM129.603 54.98L129.894 55.7596L125.521 57.3556V56.4666L129.603 54.98ZM134.665 46.8351V48.7401L130.021 50.427L129.821 49.919L127.79 44.3141C127.263 43.6431 126.774 43.3165 126.175 43.5161C125.83 43.6431 125.631 43.9148 125.521 44.2598V38.4912C125.776 38.2372 126.085 38.0015 126.392 37.8202C129.023 36.4239 131.942 38.3098 132.433 40.1422L133.884 44.3868L133.776 44.4235L134.665 46.8351ZM134.665 49.6284L130.31 51.2067L130.583 51.9863L134.665 50.499V49.6284ZM134.665 51.388V52.2587L131.145 53.5463L130.874 52.7667L134.665 51.388ZM134.665 53.1477L131.436 54.3266L131.725 55.0879L134.665 54.0183V53.1477ZM125.521 55.5966L129.331 54.1996L129.041 53.4384L125.521 54.7084V55.5966ZM125.521 53.8363V52.9473L128.478 51.877L128.75 52.6566L125.521 53.8363ZM125.521 52.0773L128.188 51.098L128.007 50.5717C127.716 50.8073 127.245 50.4814 126.882 49.6643L125.776 46.6171C125.664 46.3231 125.579 46.0197 125.521 45.7104V52.0773ZM125.521 57.3556L122.003 58.6256L121.713 57.8643L125.521 56.4673V57.3556ZM125.521 38.4905V44.2591C125.394 44.6761 125.413 45.2024 125.521 45.7104V52.0773L120.297 53.9633L120.117 53.456C121.277 53.039 121.132 52.222 120.987 51.4064L119.663 47.7967L118.865 46.7991H117.685L116.216 42.7718L123.145 40.2685L123.707 41.8284C123.743 41.3748 124.361 39.6342 125.521 38.4905ZM125.521 52.948L120.588 54.7436L120.86 55.5233L125.521 53.8363V52.948ZM125.521 54.7076L121.15 56.3036L121.423 57.084L125.522 55.5966V54.7076H125.521ZM78.8671 64.0492V64.8839H69.6342V64.0492H78.8671ZM78.8671 62.3982V63.2329H69.6342V62.3982H78.8671ZM78.8671 60.7472V61.5635H69.6342V60.7472H78.8671ZM76.9995 47.9957V49.6827C77.2351 49.1747 78.9221 46.7984 80.8991 46.8344C83.2394 46.871 84.8361 49.4654 85.035 51.0613L84.9447 55.5416H80.4644C80.1018 53.492 79.7935 52.1317 78.7415 52.1133C77.6895 52.0957 77.3085 53.619 77.3085 54.889V58.1176C77.3628 59.0242 78.1608 59.4786 78.8685 59.3692V59.9132H69.6342V59.3692C70.8858 59.3692 71.0305 58.5529 71.1582 57.7366V53.8913L70.7595 52.6947L69.6349 52.277V47.9964H76.9995V47.9957ZM47.9581 64.0492V64.9558H37.0382V64.0492H47.9581ZM47.9581 62.3982V63.2329H37.0382V62.3982H47.9581ZM47.9581 60.7472V61.5635H37.0382V60.7472H47.9581ZM32.8112 64.0492V64.9558H22V64.0492H32.8112ZM32.8112 62.3982V63.2329H22V62.3982H32.8112ZM32.8112 60.7472V61.5635H22V60.7472H32.8112ZM30.7256 58.0449C30.8709 59.0242 31.1066 58.8429 31.7959 59.4412H32.8119V59.9125H22V59.4412H23.3787C24.6303 59.0969 24.957 58.2799 24.9203 57.3006L24.9393 48.5947C24.8667 47.6147 24.2684 47.1074 23.3794 47.0524H22V42.3541H29.8726L34.2082 49.5917L37.6365 42.3541H47.9574V47.0524H46.5787C45.5811 47.1977 44.8374 47.796 44.9284 48.8664V57.7359C45.0187 58.6792 45.5811 59.4236 46.5787 59.4412H47.9574V59.9125H37.0382V59.4412C38.1445 59.2599 38.3442 58.9875 38.4345 58.3349L38.4521 55.5783L34.6436 58.8253L30.7066 55.3419L30.7256 58.0449Z" fill="black"/>
</svg>
