<svg width="176" height="104" viewBox="0 0 176 104" fill="none" xmlns="http://www.w3.org/2000/svg">
<path d="M9.79714 46.2826H9.79275H9.79714ZM123.932 59.1922C123.235 59.1922 122.497 58.9819 121.739 58.5649L121.381 58.3691L119.696 62.0834L120.008 62.2462C121.447 63.0336 122.757 63.3645 124.368 63.3645C127.353 63.3645 129.081 61.9065 130.528 58.1777L137.749 39.5012H132.709C132.709 39.5012 128.984 50.1891 128.392 51.8763C127.752 50.2063 123.662 39.5012 123.662 39.5012H118.512C118.512 39.5012 125.89 57.2117 126.019 57.524C125.385 58.9036 124.769 59.1922 123.933 59.1922H123.932ZM77.176 54.496L77.4165 54.2259L74.4515 51.296L74.1745 51.5701C72.7699 53.0148 71.4404 53.6584 69.8748 53.6584C67.0839 53.6584 64.9797 51.3871 64.9797 48.3595V48.2926C64.9797 45.3548 67.0404 43.0619 69.6756 43.0619C71.7165 43.0619 72.9466 44.0623 73.9771 45.1458L74.2515 45.4406L77.2776 42.1808L77.0393 41.9177C75.0556 39.7277 72.7932 38.752 69.7104 38.752C64.3585 38.752 60.1744 42.9691 60.1744 48.3595V48.429C60.1744 53.76 64.344 57.9375 69.6756 57.9375C73.5709 57.9375 75.6535 56.1981 77.176 54.496ZM88.1545 57.8694C93.6809 57.8694 97.9969 53.6654 97.9969 48.2966V48.2288C97.9969 42.875 93.7042 38.6851 88.2297 38.6851C82.7284 38.6851 78.4255 42.904 78.4255 48.297V48.3665C78.4255 53.6931 82.7007 57.8698 88.1549 57.8698L88.1545 57.8694ZM83.2318 48.2288C83.2318 45.1964 85.3012 42.9907 88.1545 42.9907C91.0263 42.9907 93.196 45.2695 93.196 48.297V48.3665C93.196 50.9617 91.4879 53.5946 88.2297 53.5946C85.4247 53.5946 83.2318 51.274 83.2318 48.297V48.2288ZM52.2391 39.3195L52.2624 39.6956V49.791C52.2624 51.8446 50.9316 53.2765 49.013 53.2765C47.1207 53.2765 45.6853 51.7575 45.6853 49.7417V39.3199H40.6293V49.791C40.6293 54.361 44.2889 57.3683 48.9637 57.3683C50.3917 57.3683 51.7252 56.8368 52.8907 56.2434L53.2217 56.0657L53.2754 56.9996V57.3538H57.3245V39.3195H52.2624H52.2391ZM105.8 57.3683L105.78 56.997V46.8998C105.78 44.841 107.112 43.4103 109.028 43.4103C110.927 43.4103 112.357 44.9294 112.357 46.9491V57.3683H117.414V46.8998C117.414 42.3215 113.756 39.3199 109.081 39.3199C107.646 39.3199 106.314 39.847 105.148 40.4466L104.818 40.6195L104.765 39.6868V39.3195H100.712V57.3683H105.78H105.8ZM32.4079 39.6173V40.3986C30.9566 39.5694 29.2226 38.7172 27.3242 38.7172C21.7191 38.7172 17.3279 42.629 17.3279 48.1241V48.1954C17.3279 53.6333 21.6919 57.4976 27.2587 57.4976C29.1571 57.4976 30.9117 56.6222 32.4079 55.7683V57.0317H36.9297V39.1875H32.4079V39.6173ZM27.4983 53.5321C24.4621 53.5321 22.0036 51.1099 22.0036 48.1241C22.0036 45.1397 24.4621 42.7175 27.4983 42.7175C30.5314 42.7175 32.9939 45.1397 32.9939 48.1241C32.9939 51.1099 30.5314 53.5317 27.4983 53.5317V53.5321ZM8.54063 41.8433C9.77252 41.8433 11.4748 42.4403 13.5852 43.6048L13.7549 43.7007L15.6458 40.271L15.495 40.1734C13.4374 38.8958 10.8453 38.1348 8.56525 38.1348C5.06476 38.1348 1.53262 40.008 1.53262 44.2018V44.2717C1.53262 47.7014 4.68754 49.0669 7.42875 49.8724C9.24714 50.4095 11.022 51.0444 11.022 52.3976V52.4662C11.022 53.0482 10.7626 54.5734 8.34454 54.5734C6.64838 54.5734 4.49761 53.5752 2.27826 52.0826L2.11867 51.9708L0 55.2307L0.149481 55.3385C2.51216 57.0841 5.36812 58.2719 8.19506 58.2719C12.9494 58.2719 15.5645 55.9645 15.5645 52.1789V51.7953C15.5645 49.399 13.6533 47.5984 9.7057 46.2831H9.70877H9.7057L9.22428 46.1185C7.3971 45.5114 6.07507 45.0702 6.07507 43.6778V43.6008C6.07507 42.7571 6.8471 41.8433 8.54063 41.8433Z" fill="#B50938"/>
<path d="M175.609 60.1875V60.1817C174.132 59.1739 174.132 59.1664 173.121 58.5567C163.43 52.6784 158.422 51.9886 153.724 53.5582C150.073 54.7812 143.793 59.7546 143.793 59.7546C138.058 63.5841 132.257 69.9124 118.662 69.1734C106.005 68.488 79.9399 61.7149 79.6247 61.6278C79.3099 61.5363 78.9819 61.7716 79.0795 62.142C79.1534 62.4223 79.786 63.8116 79.786 63.8116C79.8656 64.0007 80.034 64.0443 80.1171 64.0821C90.4963 68.25 122.155 79.8653 133.344 79.8653C146.68 79.8653 157.713 61.3401 169.576 61.3401C173.256 61.3401 174.191 61.4725 174.718 61.4764C175.242 61.5217 175.685 61.3634 175.816 60.9019C175.816 60.9019 175.999 60.517 175.609 60.1875ZM141.201 72.0615C141.129 72.4299 140.984 72.7802 140.776 73.0923C140.567 73.4044 140.299 73.672 139.986 73.8797C139.348 74.3064 138.589 74.4503 137.839 74.3064C137.285 74.1944 136.777 73.9207 136.378 73.5198C135.98 73.119 135.709 72.609 135.6 72.0542C135.491 71.4995 135.549 70.9249 135.767 70.4031C135.984 69.8812 136.351 69.4356 136.821 69.1223C138.131 68.2513 139.907 68.6098 140.779 69.9182C141.201 70.5543 141.351 71.3167 141.201 72.0615ZM148.386 68.2874C147.073 69.1602 145.301 68.7985 144.425 67.4915C143.559 66.1744 143.909 64.3989 145.22 63.5287C146.532 62.6603 148.306 63.0175 149.179 64.3227C149.489 64.788 149.656 65.3346 149.658 65.8942C149.659 66.3669 149.543 66.8325 149.321 67.2499C149.099 67.6673 148.778 68.0236 148.386 68.2874ZM158.002 60.8755C157.931 61.2443 157.786 61.595 157.576 61.9066C157.367 62.2182 157.096 62.4844 156.782 62.6893C156.472 62.8996 156.123 63.0455 155.755 63.1183C155.388 63.1912 155.01 63.1895 154.643 63.1134C153.899 62.9649 153.244 62.5279 152.821 61.8979C152.403 61.26 152.253 60.5011 152.403 59.7532C152.554 59.0036 152.981 58.3574 153.626 57.9377C153.936 57.728 154.285 57.5825 154.652 57.5097C155.02 57.4368 155.398 57.4382 155.764 57.5136C156.133 57.5864 156.483 57.7316 156.794 57.9407C157.106 58.1499 157.373 58.4189 157.58 58.7322C158.002 59.3657 158.152 60.1267 158.002 60.8755ZM142.632 39.6465C144.549 39.6465 146.146 41.1453 146.146 43.1113C146.146 45.1108 144.549 46.6127 142.632 46.6127C140.73 46.6127 139.127 45.1108 139.127 43.1461C139.127 41.1453 140.73 39.6465 142.632 39.6465ZM142.632 46.1046C144.273 46.1046 145.584 44.8103 145.584 43.1113C145.584 41.4326 144.274 40.1506 142.632 40.1506C140.999 40.1506 139.686 41.4326 139.686 43.1465C139.686 44.8103 140.999 46.1041 142.632 46.1041V46.1046ZM141.335 41.1365H142.819C143.777 41.1365 144.232 41.4893 144.232 42.2953C144.232 43.0198 143.767 43.3247 143.166 43.3916L144.336 45.1719H143.719L142.618 43.4382H141.899V45.1719H141.335V41.1365ZM141.899 42.934H142.587C143.147 42.934 143.67 42.9037 143.67 42.2676C143.67 41.7071 143.197 41.6389 142.763 41.6389H141.899" fill="#B50938"/>
</svg>
