<svg width="176" height="104" viewBox="0 0 176 104" fill="none" xmlns="http://www.w3.org/2000/svg">
<path opacity="0.8" d="M92.7246 47.4269C92.0907 47.4186 91.5967 47.2666 91.2448 46.9717C90.893 46.6768 90.7151 46.2892 90.7106 45.8089H89.8381V57.6603H90.7106C90.7151 57.1808 90.893 56.7924 91.2448 56.4975C91.5967 56.2027 92.0907 56.0507 92.7246 56.0423H103.558V61.6389C102.624 62.4711 100.964 63.3869 98.5819 64.3863C96.2008 65.3857 93.0331 65.9314 89.0804 66.0211C85.8025 66.0264 82.7876 65.3956 80.0371 64.1295C77.2859 62.8618 75.0736 60.9352 73.4001 58.3436C71.7265 55.7535 70.867 52.4726 70.8206 48.5038C70.8609 44.7076 71.7319 41.5529 73.4327 39.0373C75.1329 36.5217 77.422 34.6399 80.2978 33.3905C83.1736 32.1403 86.3953 31.5163 89.9604 31.5186C92.7831 31.5566 95.3336 31.9442 97.6136 32.6784C99.8936 33.4133 101.709 34.2645 103.057 35.2312C104.405 36.1979 105.097 37.0491 105.13 37.7833C105.119 38.2666 105.079 38.6489 105.005 38.9286L105.877 39.5351L111.981 28.4946L111.101 28.0902C110.956 28.3095 110.758 28.4889 110.526 28.6124C110.275 28.753 110.005 28.8259 109.716 28.8312C109.473 28.8138 108.796 28.547 107.687 28.0317C106.578 27.5164 105.176 26.8621 103.486 26.0686C101.674 25.434 99.5957 24.8663 97.2534 24.367C94.9096 23.8677 92.4365 23.6047 89.8328 23.5758C85.3655 23.5622 81.0107 24.4422 76.7691 26.2138C72.5276 27.9861 69.0126 30.732 66.2257 34.4514C63.4387 38.1716 61.994 42.9437 61.8906 48.7706C61.9583 54.5975 63.2351 59.3696 65.7218 63.089C68.2077 66.8092 71.4985 69.5543 75.5934 71.3267C79.6891 73.0982 84.1829 73.9783 89.0773 73.9646C92.7344 73.9175 96.1772 73.444 99.3996 72.5495C102.622 71.6535 105.462 70.6244 107.915 69.4593C110.369 68.2943 112.269 67.2842 113.618 66.4285V65.4861C113.215 65.3956 112.922 65.2231 112.746 64.9708C112.57 64.72 112.482 64.3293 112.486 63.7996V50.5232C112.497 49.7936 112.617 49.2669 112.849 48.9408C113.08 48.6148 113.358 48.4248 113.684 48.3686V47.4262L92.7246 47.4269ZM142.149 39.1072C142.498 39.1075 142.842 39.0174 143.147 38.8458C143.448 38.6748 143.689 38.4399 143.869 38.1405C144.054 37.8285 144.15 37.4723 144.148 37.1099C144.15 36.7497 144.054 36.3957 143.869 36.0862C143.693 35.7935 143.444 35.5514 143.147 35.3832C142.841 35.2114 142.496 35.1211 142.145 35.1211C141.794 35.1211 141.449 35.2114 141.143 35.3832C140.845 35.5508 140.595 35.7931 140.418 36.0862C140.233 36.3957 140.137 36.7497 140.139 37.1099C140.143 37.4975 140.237 37.8418 140.418 38.1405C140.598 38.4407 140.842 38.6755 141.143 38.8458C141.446 39.0168 141.782 39.1034 142.149 39.1072ZM140.535 37.1092C140.538 36.7915 140.611 36.5088 140.752 36.2602C140.894 36.0117 141.085 35.8164 141.328 35.6728C141.577 35.5281 141.861 35.4523 142.149 35.4531C142.45 35.4562 142.722 35.5291 142.963 35.6728C143.203 35.8164 143.393 36.0117 143.534 36.2602C143.677 36.5088 143.748 36.7915 143.751 37.1092C143.754 37.4091 143.68 37.7047 143.534 37.9672C143.399 38.2106 143.202 38.4138 142.963 38.5562C142.716 38.7009 142.435 38.7765 142.149 38.7751C141.865 38.7788 141.585 38.7057 141.339 38.5635C141.093 38.4212 140.89 38.2152 140.752 37.9672C140.607 37.7046 140.533 37.4091 140.535 37.1092ZM141.729 37.2672H142.127L142.729 38.2644H143.117L142.468 37.2513C142.624 37.2391 142.773 37.1767 142.891 37.0734C143.001 36.9746 143.057 36.8226 143.062 36.619C143.062 36.3932 142.995 36.2276 142.859 36.1219C142.726 36.017 142.525 35.9638 142.254 35.9654H141.384V38.2636H141.729V37.2672ZM141.729 36.9731V36.2602H142.201C142.317 36.2543 142.433 36.2754 142.539 36.3218C142.641 36.3674 142.692 36.4594 142.698 36.5977C142.694 36.7687 142.638 36.8743 142.53 36.9176C142.406 36.963 142.274 36.9816 142.142 36.9724L141.729 36.9731Z" fill="#1E1E1C"/>
<path opacity="0.8" d="M62.8657 60.379C62.0183 58.3962 61.4505 56.2864 61.107 54.1067C61.009 53.4947 60.9297 52.8798 60.8691 52.263C60.7508 51.1069 60.6872 49.9458 60.6784 48.7837V48.7465C60.701 47.2973 60.8147 45.8509 61.0189 44.416C61.1252 43.6849 61.2362 43.0708 61.395 42.3503C61.5394 41.6906 61.6831 41.1404 61.8754 40.4951C62.2517 39.2 62.7486 37.9431 63.3596 36.7408C63.9022 35.6484 64.5454 34.609 65.2809 33.6362C65.5861 33.2285 65.9021 32.8291 66.2286 32.4384V29.0138C66.2134 28.4644 66.2887 28.0745 66.4536 27.8412C66.6185 27.6071 66.9636 27.4938 67.4887 27.4999V26.8007H58.5367V27.4999C59.0634 27.4938 59.416 27.6071 59.5946 27.8412C59.7724 28.0745 59.8553 28.4644 59.8416 29.0138V49.8986C59.8667 51.9415 59.5878 53.6401 59.0048 54.8842C58.4227 56.1283 57.3898 57.0274 55.9071 57.5868C54.4243 58.1461 52.345 58.4213 49.6682 58.4114C46.9923 58.4213 44.9122 58.1454 43.4294 57.5868C41.9474 57.0289 40.9146 56.1283 40.3316 54.8842C39.7495 53.6401 39.4706 51.9415 39.4949 49.8986V29.0138C39.482 28.4644 39.564 28.0745 39.7426 27.8412C39.9212 27.6071 40.2731 27.4938 40.8006 27.4999V26.8007H31.8516V27.4999C32.376 27.4938 32.7225 27.6071 32.8859 27.8412C33.0516 28.0745 33.1261 28.4644 33.1109 29.0138V51.1093C33.1534 55.8829 34.6195 59.2443 37.5075 61.1945C40.3955 63.1431 44.4493 64.0848 49.6682 64.0179C54.8879 64.0848 58.9418 63.1447 61.8298 61.1945C62.1991 60.9452 62.5434 60.6747 62.8657 60.379ZM102.039 46.1229H109.001C108.987 45.8493 108.979 45.5712 108.976 45.2885C109.007 42.4217 109.685 40.0391 111.008 38.1391C112.332 36.2391 114.113 34.8179 116.351 33.874C118.59 32.9301 121.098 32.4589 123.872 32.4597C126.071 32.4901 128.057 32.7819 129.832 33.3359C131.606 33.8907 133.017 34.5337 134.069 35.2641C135.119 35.9944 135.656 36.6374 135.682 37.1922C135.673 37.557 135.64 37.8458 135.582 38.0578L136.263 38.5154L141.016 30.1774L140.33 29.8726C140.216 30.039 140.063 30.1743 139.883 30.2663C139.69 30.3717 139.473 30.4286 139.253 30.432C139.064 30.4183 138.537 30.2169 137.673 29.827C136.809 29.4387 135.72 28.9447 134.403 28.345C132.992 27.8662 131.375 27.4376 129.55 27.0606C127.726 26.6829 125.8 26.4838 123.773 26.4625C120.297 26.4526 116.906 27.1169 113.603 28.4552L113.37 28.5518L106.282 41.3691L103.599 39.5056L103.833 38.586C103.849 38.5245 103.86 38.472 103.87 38.4082V38.4044C103.881 38.3314 103.887 38.2699 103.894 38.1969C103.906 38.0723 103.91 37.9659 103.915 37.8397L103.909 37.8237C103.906 37.8207 103.906 37.8177 103.904 37.8154C103.878 37.7504 103.844 37.6887 103.804 37.6315L103.802 37.6284C103.768 37.5788 103.732 37.5306 103.694 37.484C102.634 39.7709 102.076 42.44 102.022 45.4921C102.026 45.7019 102.031 45.9132 102.039 46.1229ZM113.707 55.6465V62.9243C116.617 63.9936 119.777 64.5241 123.185 64.5157C126.033 64.48 128.711 64.1228 131.222 63.4479C133.73 62.77 135.939 61.9933 137.85 61.1132C139.76 60.2339 141.24 59.4701 142.291 58.8233V58.1104C141.975 58.0413 141.749 57.9121 141.61 57.7213C141.472 57.5321 141.404 57.2364 141.407 56.8367V46.8123C141.416 46.2613 141.51 45.863 141.689 45.6183C141.868 45.3721 142.085 45.2277 142.338 45.1859V44.4745H126.025C125.531 44.4677 125.147 44.3529 124.871 44.1302C124.739 44.0257 124.633 43.8921 124.561 43.7399C124.489 43.5876 124.453 43.4208 124.455 43.2524H123.775V52.2037H124.455C124.46 51.8397 124.598 51.5486 124.871 51.3251C125.145 51.1025 125.529 50.9885 126.025 50.9809H134.457V55.208C133.73 55.8357 132.439 56.5273 130.585 57.2828C128.731 58.0375 126.263 58.4494 123.188 58.517C120.637 58.5208 118.292 58.0443 116.148 57.0882C115.281 56.7044 114.462 56.2205 113.707 55.6465ZM37.1678 85.133H36.2991V84.5903C36.2208 84.6405 36.1174 84.7135 35.9852 84.8069C35.7177 84.993 35.4176 85.1271 35.1006 85.2021C34.9113 85.2493 34.6902 85.2736 34.4363 85.2736C33.9689 85.2736 33.5722 85.1216 33.2469 84.8168C32.9216 84.5136 32.7598 84.1252 32.7598 83.654C32.7598 83.2679 32.8441 82.9556 33.0128 82.7169C33.1816 82.4791 33.4225 82.2898 33.7348 82.1545C34.051 82.0177 34.4302 81.9243 34.8733 81.8764C35.3164 81.8285 35.7914 81.792 36.2991 81.7654V81.6332C36.2991 81.4386 36.2649 81.2775 36.195 81.1498C36.1263 81.0224 36.022 80.9178 35.8948 80.8489C35.7563 80.7744 35.6053 80.726 35.4494 80.706C35.013 80.6457 34.5693 80.6637 34.1392 80.7592C33.858 80.8169 33.5669 80.9028 33.2667 81.0161H33.2196V80.1451C33.3898 80.0987 33.636 80.0486 33.9583 79.9954C34.2728 79.9413 34.5914 79.9138 34.9106 79.9133C35.2754 79.9133 35.5938 79.9437 35.8651 80.0022C36.1357 80.0623 36.3705 80.1626 36.5681 80.3055C36.7634 80.4453 36.9124 80.6262 37.0142 80.8473C37.1168 81.07 37.1678 81.3444 37.1678 81.6727V85.133ZM36.2991 83.879V82.4608C36.0331 82.4768 35.7192 82.4996 35.359 82.5292C34.9987 82.5604 34.713 82.6045 34.5024 82.6615C34.2516 82.7329 34.0487 82.8401 33.8937 82.989C33.7386 83.1365 33.6611 83.3394 33.6611 83.5985C33.6611 83.8896 33.7516 84.1108 33.9302 84.2567C34.1103 84.4041 34.3839 84.4779 34.7525 84.4779C35.0588 84.4779 35.3392 84.4201 35.593 84.3038C35.8469 84.1853 36.0825 84.0431 36.2991 83.879ZM51.4284 85.133H50.5552V84.5675C50.261 84.7955 49.9798 84.9703 49.71 85.0919C49.4292 85.2153 49.1253 85.2772 48.8186 85.2736C48.2729 85.2736 47.8488 85.1102 47.5456 84.7826C47.2423 84.4558 47.0903 83.9755 47.0903 83.3424V80.0349H47.9636V82.9366C47.9636 83.1935 47.9765 83.4146 48.0008 83.6001C48.0259 83.7825 48.0791 83.9398 48.1589 84.0705C48.2425 84.2058 48.3504 84.3023 48.4842 84.3631C48.6164 84.4239 48.811 84.4551 49.0648 84.4551C49.2905 84.4551 49.5375 84.3973 49.805 84.281C50.0741 84.1663 50.3234 84.0173 50.5552 83.8387V80.0341H51.4284V85.133ZM65.132 83.6662C65.132 84.1298 64.9359 84.5113 64.5452 84.8107C64.1539 85.1087 63.6188 85.2576 62.9409 85.2576C62.5571 85.2576 62.2045 85.212 61.8837 85.1223C61.6067 85.0494 61.337 84.9509 61.0781 84.8282V83.8653H61.1252C61.4004 84.069 61.7066 84.2301 62.0448 84.3509C62.3823 84.471 62.7061 84.5311 63.0154 84.5311C63.3992 84.5311 63.6994 84.4703 63.916 84.3487C64.1326 84.2278 64.2412 84.0355 64.2412 83.7741C64.2412 83.5719 64.182 83.4215 64.0649 83.3166C63.9471 83.2132 63.7214 83.1251 63.387 83.0521C63.2257 83.0173 63.0638 82.9854 62.9014 82.9563C62.7183 82.9226 62.5363 82.883 62.3557 82.8378C61.9012 82.72 61.5782 82.5452 61.3875 82.3157C61.1975 82.0854 61.1017 81.8034 61.1017 81.469C61.1017 81.2593 61.1465 81.0617 61.2339 80.8762C61.3221 80.6923 61.4558 80.5251 61.636 80.3807C61.8092 80.2371 62.0296 80.1238 62.2979 80.0402C62.5894 79.9536 62.8922 79.9114 63.1962 79.9148C63.5063 79.9148 63.8194 79.9528 64.1371 80.0258C64.4107 80.0853 64.6764 80.1764 64.9291 80.2971V81.2137H64.8827C64.6331 81.0384 64.3591 80.9009 64.0695 80.8055C63.7682 80.6974 63.4509 80.6409 63.1309 80.6383C62.8125 80.6383 62.5434 80.6984 62.323 80.8177C62.1034 80.9378 61.9932 81.1179 61.9932 81.355C61.9932 81.5633 62.06 81.7221 62.1931 81.8285C62.323 81.9364 62.5335 82.0215 62.8246 82.0884C62.9857 82.1257 63.1658 82.1629 63.3657 82.1994C63.5656 82.2351 63.732 82.2685 63.865 82.2997C64.2709 82.3909 64.5832 82.5467 64.8029 82.7694C65.0225 82.9951 65.132 83.293 65.132 83.6662ZM78.4168 85.0881C78.24 85.1341 78.0605 85.1694 77.8795 85.1938C77.7081 85.2193 77.5352 85.2333 77.3619 85.2356C76.8322 85.2356 76.4301 85.0942 76.1543 84.8153C75.8791 84.5356 75.7408 84.0872 75.7408 83.4693V80.7607H75.1511V80.0402H75.7408V78.5757H76.6141V80.0402H78.4168V80.7607H76.6141V83.0825C76.6141 83.3515 76.6201 83.5598 76.6323 83.7103C76.6452 83.86 76.6885 84.0013 76.7623 84.1321C76.8299 84.2537 76.9241 84.3426 77.0435 84.3996C77.1628 84.4573 77.3444 84.4839 77.5891 84.4839C77.7313 84.4839 77.8795 84.4634 78.0345 84.4224C78.1895 84.3806 78.3005 84.3464 78.3681 84.319H78.4153L78.4168 85.0881ZM92.0489 80.9735H92.0025C91.8771 80.9451 91.7503 80.9233 91.6225 80.9081C91.4786 80.893 91.334 80.8861 91.1893 80.8876C90.9195 80.8876 90.6596 80.9454 90.4096 81.0624C90.1588 81.1795 89.9179 81.3315 89.6845 81.5169V85.1345H88.8121V80.0395H89.6845V80.7911C90.0311 80.519 90.3358 80.3245 90.6019 80.2097C90.8679 80.0965 91.1369 80.0379 91.412 80.0379C91.5633 80.0379 91.6735 80.0425 91.7426 80.0501C91.8118 80.0577 91.9129 80.0714 92.0489 80.0934V80.9735ZM105.59 85.133H104.72V84.5903C104.642 84.6405 104.54 84.7135 104.407 84.8069C104.14 84.9934 103.84 85.1275 103.523 85.2021C103.305 85.2523 103.082 85.2763 102.858 85.2736C102.391 85.2736 101.993 85.1216 101.67 84.8168C101.344 84.5136 101.182 84.1252 101.182 83.654C101.182 83.2679 101.266 82.9556 101.435 82.7169C101.604 82.4791 101.845 82.2898 102.157 82.1545C102.473 82.0177 102.852 81.9243 103.295 81.8764C103.737 81.8285 104.213 81.792 104.72 81.7654V81.6332C104.72 81.4386 104.686 81.2775 104.616 81.1498C104.546 81.0229 104.442 80.9185 104.315 80.8489C104.177 80.7743 104.025 80.7259 103.869 80.706C103.433 80.6457 102.989 80.6637 102.559 80.7592C102.262 80.8216 101.97 80.9075 101.686 81.0161H101.639V80.1451C101.81 80.0987 102.057 80.0486 102.379 79.9954C102.7 79.9407 103.017 79.9133 103.331 79.9133C103.695 79.9133 104.014 79.9437 104.286 80.0022C104.555 80.0623 104.791 80.1626 104.989 80.3055C105.184 80.4453 105.332 80.6262 105.435 80.8473C105.537 81.07 105.588 81.3444 105.588 81.6727V85.1322H105.59V85.133ZM104.72 83.879V82.4608C104.407 82.4801 104.093 82.5029 103.78 82.5292C103.491 82.549 103.204 82.5932 102.923 82.6615C102.673 82.7329 102.469 82.8401 102.315 82.989C102.16 83.1365 102.082 83.3394 102.082 83.5985C102.082 83.8896 102.172 84.1108 102.351 84.2567C102.529 84.4041 102.804 84.4779 103.173 84.4779C103.479 84.4779 103.759 84.4201 104.012 84.3038C104.267 84.1853 104.504 84.0431 104.72 83.879ZM116.625 85.133H115.752V78.0353H116.625V85.133ZM128.051 79.1852H127.067V78.2953H128.051V79.1852ZM127.996 85.133H127.124V80.0379H127.996V85.133ZM142.517 85.133H141.648V84.5903C141.571 84.6405 141.466 84.7135 141.334 84.8069C141.067 84.9929 140.767 85.127 140.45 85.2021C140.233 85.2528 140.01 85.2767 139.787 85.2736C139.319 85.2736 138.921 85.1216 138.598 84.8168C138.271 84.5136 138.109 84.1252 138.109 83.654C138.109 83.2679 138.193 82.9556 138.362 82.7169C138.531 82.4791 138.773 82.2898 139.085 82.1545C139.4 82.0177 139.778 81.9243 140.222 81.8764C140.696 81.8263 141.172 81.7893 141.648 81.7654V81.6332C141.648 81.4386 141.614 81.2775 141.542 81.1498C141.474 81.0226 141.369 80.918 141.242 80.8489C141.104 80.7742 140.953 80.7257 140.797 80.706C140.36 80.6454 139.917 80.6634 139.487 80.7592C139.19 80.8213 138.898 80.9072 138.615 81.0161H138.568V80.1451C138.739 80.0987 138.984 80.0486 139.306 79.9954C139.621 79.9414 139.939 79.9139 140.258 79.9133C140.624 79.9133 140.941 79.9437 141.213 80.0022C141.484 80.0623 141.719 80.1626 141.917 80.3055C142.113 80.4453 142.261 80.6262 142.364 80.8473C142.467 81.07 142.517 81.3444 142.517 81.6727V85.133ZM141.649 83.879V82.4608C141.382 82.4768 141.069 82.4996 140.709 82.5292C140.42 82.5488 140.133 82.593 139.852 82.6615C139.601 82.7329 139.398 82.8401 139.243 82.989C139.088 83.1365 139.01 83.3394 139.01 83.5985C139.01 83.8896 139.101 84.1108 139.28 84.2567C139.459 84.4041 139.733 84.4779 140.102 84.4779C140.391 84.4815 140.678 84.4221 140.942 84.3038C141.197 84.1837 141.433 84.0431 141.649 83.879Z" fill="#1E1E1C"/>
</svg>
