<svg width="176" height="104" viewBox="0 0 176 104" fill="none" xmlns="http://www.w3.org/2000/svg">
<path opacity="0.8" d="M74.0202 55.4831L73.972 44.121L84.8471 40.0869L73.8969 36.498L73.6663 25.3022L67.0221 34.3307L56.1523 30.9779L62.4587 40.4624L56.3079 49.963L67.0329 46.4063L74.0202 55.4831Z" fill="#1E1E1C"/>
<path opacity="0.8" d="M75.3789 67.4299H94.8609L119.276 40.4195L94.7429 13.377H75.4486L98.3948 40.382L75.3789 67.4299Z" fill="#1E1E1C"/>
<path opacity="0.8" d="M32 81.9683C32 78.4599 34.9655 75.0051 39.0195 75.0051C41.7812 75.0051 44.8807 78.1219 44.8807 78.1219L41.5238 80.0746C41.5238 80.0746 40.9715 78.6101 38.8962 78.6101C36.7941 78.6101 35.5553 80.3375 35.5393 81.9093C35.5232 83.6635 36.9603 85.2085 38.7728 85.2085C40.1939 85.2085 41.7008 83.6796 41.7008 83.6796L44.5697 85.7556C44.5697 85.7556 42.4247 88.3843 38.8318 88.3843C35.239 88.3789 32 86.2063 32 81.9683Z" fill="#1E1E1C"/>
<path opacity="0.8" d="M52.9334 75.1816C49.1582 75.1816 46.1016 78.1965 46.1016 81.9088C46.1016 85.621 49.1582 88.6252 52.9334 88.6252C56.7086 88.6252 59.776 85.621 59.776 81.9088C59.776 78.2019 56.7086 75.1816 52.9334 75.1816ZM52.9334 78.5452C54.821 78.5452 56.3547 80.0526 56.3547 81.9088C56.3547 83.7649 54.821 85.2616 52.9334 85.2616C51.0458 85.2616 49.5228 83.7649 49.5228 81.9088C49.5228 80.0526 51.0458 78.5452 52.9334 78.5452Z" fill="#1E1E1C"/>
<path opacity="0.8" d="M62.3438 75.3691V87.9436H65.6363V81.1467L71.0685 87.9436H74.3129V75.3691H71.0096V82.7186L65.6417 75.3691H62.3438Z" fill="#1E1E1C"/>
<path opacity="0.8" d="M76.9922 75.3691L81.4377 87.9436H86.3337L90.7792 75.3691H87.1809L83.8884 85.3525L80.5958 75.3691H76.9922Z" fill="#1E1E1C"/>
<path opacity="0.8" d="M93.1367 75.3691V87.9436H103.25V85.0414H96.4293V82.9385H102.559V80.3689H96.4293V78.3626H103.25V75.3691H93.1367Z" fill="#1E1E1C"/>
<path opacity="0.8" d="M133.887 75.3691V87.9436H143.995V85.0414H137.174V82.9385H143.303V80.3689H137.174V78.3626H143.995V75.3691H133.887Z" fill="#1E1E1C"/>
<path opacity="0.8" d="M106.969 75.6106V88.008H109.891V83.1209H111.564L114.133 88.008H117.898L115.356 82.7079C118.659 80.723 118.005 76.5762 114.321 75.6106H106.969ZM109.832 78.604H113.205C114.38 78.604 114.299 80.4226 113.205 80.4226H109.832V78.604Z" fill="#1E1E1C"/>
<path opacity="0.8" d="M119.656 86.2703C119.785 87.0482 122.847 88.518 125.871 88.518C128.649 88.518 130.88 87.1823 130.88 84.5376C130.88 81.2813 127.083 80.5303 127.083 80.5303C127.083 80.5303 123.925 80.4874 123.844 79.0175C123.807 78.3254 124.767 77.9392 125.614 77.9392C127.003 77.9392 128.547 79.3232 128.547 79.3232L130.751 76.9468C130.751 76.9468 127.968 74.7419 125.614 74.7419C123.367 74.7419 120.176 76.2118 120.176 79.275C120.176 81.8821 123.871 83.0784 123.871 83.0784C123.871 83.0784 127.77 83.4915 127.77 84.7146C127.77 85.5461 126.354 85.7929 125.523 85.7929C123.507 85.7929 121.812 84.0226 121.812 84.0226L119.656 86.2703Z" fill="#1E1E1C"/>
</svg>
