<svg width="120" height="23" viewBox="0 0 120 23" fill="none" xmlns="http://www.w3.org/2000/svg">
<path d="M0 9.83369C0 5.50448 3.08607 3.02783 6.30382 3.02783C7.97733 3.02783 9.47847 3.74282 10.3906 4.85829V3.29564H13.3259V16.3472H10.3906V14.6518C9.45693 15.8558 7.93424 16.615 6.26072 16.615C3.1962 16.615 0 14.0941 0 9.83369ZM10.5439 9.78701C10.5439 7.57817 8.91345 5.76983 6.73956 5.76983C4.56566 5.76983 2.89214 7.53149 2.89214 9.78701C2.89214 12.0622 4.56566 13.8484 6.73956 13.8484C8.91345 13.8484 10.5439 12.0425 10.5439 9.78701Z" fill="#1E1E1C"/>
<path d="M15.4795 3.29564H18.3932V4.81161C19.1976 3.71825 20.4593 3.02783 22.0251 3.02783C24.0027 3.02783 25.3937 3.87549 26.155 5.28089C27.0241 3.91972 28.5252 3.02783 30.328 3.02783C33.7421 3.02783 35.5018 5.1261 35.5018 8.49463V16.3472H32.5019V8.74033C32.5019 6.84354 31.5467 5.63961 29.7415 5.63961C28.1542 5.63961 26.9379 6.7772 26.9379 9.05237V16.3472H23.9596V8.64942C23.9596 6.79685 23.0474 5.63715 21.2853 5.63715C19.6334 5.63715 18.4147 6.79685 18.4147 9.11871V16.3472H15.4795V3.29564Z" fill="#1E1E1C"/>
<path d="M37.1289 9.8558C37.1289 6.0401 40.021 3.02783 43.7392 3.02783C47.5219 3.02783 50.2824 5.88285 50.2824 9.74278V10.8804H39.9349C40.3275 12.7108 41.7616 13.959 43.8493 13.959C45.4797 13.959 46.763 13.045 47.3711 11.6617L49.7844 13.0892C48.6759 15.1875 46.6744 16.615 43.8493 16.615C39.8463 16.615 37.1289 13.6248 37.1289 9.8558ZM40.0857 8.3595H47.3041C46.8683 6.61995 45.5659 5.68138 43.7392 5.68138C41.9771 5.68384 40.6076 6.7772 40.0857 8.3595Z" fill="#1E1E1C"/>
<path d="M52.0815 3.29565H54.9952V5.23668C55.5817 3.94184 56.6471 3.29565 58.256 3.29565C59.1682 3.29565 59.9295 3.51924 60.4945 3.85339L59.3861 6.70841C58.9503 6.41849 58.4523 6.1949 57.624 6.1949C55.9289 6.1949 55.0143 7.13347 55.0143 9.38653V16.3472H52.0791V3.29565H52.0815Z" fill="#1E1E1C"/>
<path d="M60.5938 13.4485L63.3111 12.1094C63.9192 13.3133 65.0062 14.0062 66.3756 14.0062C67.8097 14.0062 68.5495 13.2691 68.5495 12.4215C68.5495 11.4853 67.137 11.2618 65.5712 10.9276C63.3758 10.4804 61.1133 9.72368 61.1133 7.00134C61.1133 4.90307 63.0693 2.98662 66.1147 3.00873C68.6357 3.00873 70.3332 4.05787 71.31 5.70897L68.8105 7.0038C68.2886 6.0898 67.3333 5.50995 66.1147 5.50995C64.7237 5.50995 64.0701 6.17825 64.0701 6.91535C64.0701 7.78512 65.0924 8.00871 66.9838 8.43377C69.0715 8.88094 71.4632 9.61558 71.4632 12.36C71.4632 14.188 69.8759 16.6426 66.2464 16.6205C63.4643 16.6155 61.6161 15.5001 60.5938 13.4485Z" fill="#1E1E1C"/>
<path opacity="0.3" d="M76.1295 14.8066V22.3471H73.2158V3.29564H76.1295V5.03519C77.0201 3.83127 78.5428 3.02783 80.2594 3.02783C83.4556 3.02783 86.5202 5.50448 86.5202 9.83369C86.5202 14.0941 83.3671 16.6174 80.281 16.6174C78.5428 16.615 77.0201 15.9688 76.1295 14.8066ZM83.6304 9.78701C83.6304 7.53395 81.9569 5.76983 79.8045 5.76983C77.6091 5.76983 76.0218 7.57572 76.0218 9.78701C76.0218 12.0401 77.6091 13.8484 79.8045 13.8484C81.9569 13.8484 83.6304 12.0646 83.6304 9.78701Z" fill="#1E1E1C"/>
<path opacity="0.3" d="M87.8047 9.83369C87.8047 6.0401 90.7184 3.02783 94.391 3.02783C98.0421 3.02783 100.977 6.0401 100.977 9.83369C100.977 13.6052 98.0421 16.6174 94.391 16.6174C90.7184 16.615 87.8047 13.6027 87.8047 9.83369ZM98.0876 9.83369C98.0876 7.64697 96.4572 5.8632 94.391 5.8632C92.2818 5.8632 90.6944 7.64697 90.6944 9.83369C90.6944 11.9983 92.2818 13.7821 94.391 13.7821C96.4572 13.7821 98.0876 11.9958 98.0876 9.83369Z" fill="#1E1E1C"/>
<path opacity="0.3" d="M102.627 3.29565H105.541V5.23668C106.128 3.94184 107.193 3.29565 108.802 3.29565C109.714 3.29565 110.475 3.51924 111.04 3.85339L109.932 6.70841C109.496 6.41849 108.996 6.1949 108.17 6.1949C106.475 6.1949 105.56 7.13347 105.56 9.38653V16.3472H102.625V3.29565H102.627Z" fill="#1E1E1C"/>
<path opacity="0.3" d="M112.281 3.29605H114.455V0.5H117.412V3.29605H119.998V5.99628H117.412V10.8832C117.412 13.1584 117.716 13.5147 119.998 13.5147V16.3476H119.586C115.65 16.3476 114.455 15.0527 114.455 10.9029V5.99628H112.281V3.29605Z" fill="#1E1E1C"/>
</svg>
