<svg width="592" height="384" viewBox="0 0 592 384" fill="none" xmlns="http://www.w3.org/2000/svg">
<rect width="592" height="384" rx="12" fill="white"/>
<rect width="592" height="384" rx="12" fill="#1E1E1C" fill-opacity="0.07"/>
<path d="M130.009 236.641L201 216L180.197 286.5L201 357L130.009 336.359L59 357L79.8032 286.5L59 216L130.009 236.641Z" fill="#F4AE8C"/>
<path d="M538.359 45.3979L559.753 57.1942L538.5 68.7209L526.974 89.9735L515.177 68.5799L493.779 56.7793L515.032 45.2526L526.559 24L538.359 45.3979Z" fill="#203B74"/>
<path d="M326.721 251H294.176C280.275 251 269 262.208 269 276.045V308.421C269 322.249 280.266 333.465 294.176 333.465H326.721C340.622 333.465 351.897 322.258 351.897 308.421V276.045C351.897 262.217 340.622 251 326.721 251Z" fill="#518151"/>
<path d="M295.578 280.675V274.259H289.571V280.675H285.845V265.331H289.571V271.136H295.578V265.331H299.304V280.675H295.578Z" fill="#F4AE8C"/>
<path d="M312.936 280.675L311.736 277.66H305.765L304.637 280.675H300.587L307.055 265.331H310.672L317.076 280.675H312.936ZM308.795 269.431L306.838 274.699H310.717L308.795 269.431Z" fill="#F4AE8C"/>
<path d="M326.007 280.675H322.282L316.446 265.331H320.631L324.203 276.206H324.294L327.848 265.331H331.952L326.007 280.675Z" fill="#F4AE8C"/>
<path d="M296.285 300.363L295.086 297.348H289.114L287.987 300.363H283.937L290.404 285.018H294.021L300.426 300.363H296.285ZM292.154 289.119L290.197 294.387H294.075L292.154 289.119Z" fill="#F4AE8C"/>
<path d="M301.715 300.363V285.027H305.458V300.372H301.715V300.363Z" fill="#F4AE8C"/>
<path d="M319.091 300.363L317.891 297.348H311.92L310.792 300.363H306.742L313.21 285.018H316.827L323.231 300.363H319.091ZM314.96 289.119L313.002 294.387H316.881L314.96 289.119Z" fill="#F4AE8C"/>
<path d="M334.317 300.363L328.111 290.331H328.047L328.138 300.363H324.521V285.027H328.769L334.957 295.042H335.02L334.93 285.027H338.547V300.372H334.317V300.363Z" fill="#F4AE8C"/>
<path d="M296.285 320.058L295.086 317.043H289.114L287.987 320.058H283.937L290.404 304.714H294.021L300.426 320.058H296.285ZM292.154 308.815L290.197 314.082H294.075L292.154 308.815Z" fill="#F4AE8C"/>
<path d="M309.863 308.708C309.548 308.304 309.124 307.981 308.609 307.748C308.095 307.505 307.599 307.389 307.121 307.389C306.878 307.389 306.625 307.407 306.372 307.451C306.12 307.496 305.885 307.577 305.687 307.703C305.488 307.828 305.308 307.981 305.173 308.178C305.037 308.376 304.965 308.627 304.965 308.923C304.965 309.183 305.019 309.399 305.128 309.569C305.236 309.74 305.398 309.892 305.606 310.027C305.813 310.161 306.066 310.278 306.354 310.386C306.643 310.493 306.968 310.61 307.338 310.718C307.861 310.888 308.402 311.086 308.97 311.292C309.539 311.498 310.053 311.777 310.513 312.127C310.973 312.477 311.361 312.907 311.667 313.419C311.974 313.93 312.127 314.567 312.127 315.339C312.127 316.218 311.965 316.981 311.64 317.627C311.316 318.273 310.874 318.803 310.323 319.225C309.773 319.646 309.142 319.951 308.429 320.158C307.716 320.364 306.986 320.463 306.228 320.463C305.128 320.463 304.054 320.274 303.026 319.889C301.998 319.503 301.141 318.964 300.455 318.255L302.891 315.788C303.269 316.254 303.766 316.64 304.379 316.945C304.992 317.259 305.606 317.412 306.219 317.412C306.499 317.412 306.76 317.385 307.022 317.322C307.283 317.259 307.509 317.17 307.707 317.044C307.906 316.918 308.059 316.739 308.177 316.524C308.294 316.308 308.348 316.048 308.348 315.743C308.348 315.456 308.276 315.204 308.131 315.007C307.987 314.81 307.78 314.621 307.509 314.451C307.238 314.28 306.905 314.137 306.508 313.993C306.111 313.858 305.651 313.706 305.146 313.544C304.65 313.383 304.171 313.194 303.693 312.979C303.215 312.764 302.8 312.486 302.431 312.145C302.061 311.804 301.763 311.391 301.537 310.906C301.312 310.422 301.195 309.829 301.195 309.138C301.195 308.286 301.366 307.559 301.718 306.949C302.07 306.339 302.521 305.845 303.089 305.45C303.657 305.065 304.298 304.777 305.001 304.598C305.714 304.418 306.436 304.329 307.157 304.329C308.032 304.329 308.916 304.49 309.827 304.804C310.738 305.118 311.532 305.594 312.209 306.213L309.863 308.708Z" fill="#F4AE8C"/>
<path d="M100.727 25.8926L35.349 77.0707C32.9777 78.9232 32.5622 82.329 34.4134 84.68L59.173 116.053C61.0243 118.403 64.4456 118.802 66.8169 116.949L132.195 65.771C134.566 63.9185 134.981 60.5127 133.13 58.1618L108.371 26.7892C106.511 24.4416 103.089 24.0435 100.727 25.8926Z" fill="#B1CDC1"/>
<path d="M501.796 211.928C501.805 211.928 501.814 211.928 501.814 211.928V172.534C501.805 172.534 501.805 172.534 501.796 172.534C496.029 172.534 491.35 167.888 491.35 162.151H420.437C420.428 167.879 415.758 172.525 410 172.534V211.919C415.758 211.928 420.428 216.574 420.437 222.302H491.35C491.35 216.574 496.029 211.928 501.796 211.928Z" fill="#518151"/>
<path d="M426.156 195.609C425.653 195.836 425.059 195.954 424.401 195.954C423.798 195.954 423.241 195.854 422.729 195.654C422.217 195.454 421.778 195.182 421.394 194.818C421.011 194.454 420.727 194.018 420.508 193.518C420.298 193.009 420.188 192.454 420.188 191.854C420.188 191.236 420.298 190.672 420.517 190.163C420.736 189.654 421.038 189.226 421.413 188.872C421.797 188.517 422.244 188.245 422.756 188.054C423.268 187.863 423.825 187.772 424.42 187.772C424.968 187.772 425.516 187.872 426.046 188.063C426.576 188.254 427.015 188.536 427.344 188.917L426.065 190.19C425.891 189.945 425.653 189.772 425.37 189.654C425.087 189.536 424.785 189.481 424.484 189.481C424.154 189.481 423.853 189.545 423.57 189.663C423.286 189.781 423.058 189.954 422.857 190.163C422.656 190.372 422.5 190.627 422.391 190.918C422.281 191.209 422.226 191.527 422.226 191.863C422.226 192.218 422.281 192.536 422.391 192.827C422.5 193.118 422.656 193.372 422.848 193.581C423.04 193.791 423.277 193.954 423.551 194.072C423.825 194.191 424.118 194.245 424.447 194.245C424.822 194.245 425.151 194.172 425.425 194.027C425.708 193.881 425.928 193.691 426.101 193.454L427.417 194.682C427.097 195.063 426.668 195.373 426.156 195.609Z" fill="white"/>
<path d="M437.817 191.827C437.817 192.445 437.707 192.999 437.497 193.509C437.287 194.018 436.985 194.454 436.611 194.818C436.236 195.181 435.779 195.463 435.258 195.654C434.737 195.845 434.17 195.954 433.558 195.954C432.946 195.954 432.379 195.854 431.867 195.654C431.346 195.454 430.899 195.181 430.524 194.818C430.149 194.454 429.848 194.018 429.637 193.509C429.427 192.999 429.317 192.436 429.317 191.827C429.317 191.208 429.427 190.645 429.637 190.145C429.848 189.645 430.149 189.217 430.524 188.863C430.908 188.508 431.355 188.244 431.867 188.054C432.388 187.863 432.955 187.772 433.558 187.772C434.161 187.772 434.737 187.863 435.258 188.054C435.779 188.244 436.227 188.517 436.611 188.863C436.994 189.217 437.287 189.645 437.497 190.145C437.716 190.636 437.817 191.199 437.817 191.827ZM435.806 191.827C435.806 191.49 435.752 191.172 435.642 190.881C435.532 190.59 435.377 190.336 435.185 190.126C434.993 189.917 434.755 189.754 434.481 189.635C434.207 189.517 433.905 189.454 433.567 189.454C433.229 189.454 432.937 189.517 432.662 189.635C432.388 189.754 432.16 189.917 431.959 190.126C431.758 190.336 431.611 190.59 431.502 190.881C431.392 191.172 431.346 191.49 431.346 191.827C431.346 192.181 431.401 192.499 431.511 192.799C431.621 193.099 431.776 193.354 431.968 193.563C432.16 193.772 432.397 193.945 432.672 194.063C432.946 194.181 433.247 194.245 433.576 194.245C433.905 194.245 434.207 194.181 434.481 194.063C434.755 193.945 434.993 193.772 435.185 193.563C435.386 193.354 435.541 193.099 435.651 192.799C435.742 192.499 435.806 192.172 435.806 191.827Z" fill="white"/>
<path d="M445.471 195.745L442.327 190.662H442.29L442.336 195.745H440.508V187.971H442.656L445.791 193.044H445.827L445.782 187.971H447.61V195.745H445.471Z" fill="white"/>
<path d="M454.524 195.745H452.641L449.68 187.971H451.801L453.61 193.481H453.656L455.456 187.971H457.54L454.524 195.745Z" fill="white"/>
<path d="M459.617 195.745V187.971H464.872V189.553H461.445V191.026H464.689V192.526H461.445V194.135H465.073V195.735H459.617V195.745Z" fill="white"/>
<path d="M471.925 195.745L470.225 192.662H469.585V195.745H467.739V187.971H470.718C471.093 187.971 471.458 188.008 471.815 188.089C472.171 188.162 472.491 188.298 472.775 188.48C473.058 188.662 473.286 188.908 473.451 189.208C473.625 189.508 473.707 189.88 473.707 190.326C473.707 190.853 473.561 191.299 473.277 191.653C472.994 192.008 472.592 192.272 472.089 192.426L474.127 195.754H471.925V195.745ZM471.851 190.353C471.851 190.171 471.815 190.026 471.733 189.908C471.66 189.799 471.559 189.708 471.431 189.644C471.312 189.58 471.175 189.544 471.02 189.517C470.864 189.499 470.718 189.48 470.581 189.48H469.576V191.29H470.471C470.627 191.29 470.782 191.281 470.947 191.253C471.111 191.226 471.257 191.181 471.395 191.117C471.532 191.053 471.632 190.953 471.724 190.835C471.806 190.708 471.851 190.553 471.851 190.353Z" fill="white"/>
<path d="M480.62 189.99C480.456 189.781 480.245 189.626 479.989 189.499C479.724 189.381 479.478 189.317 479.231 189.317C479.103 189.317 478.975 189.326 478.847 189.354C478.719 189.372 478.6 189.417 478.5 189.481C478.399 189.545 478.308 189.626 478.244 189.726C478.171 189.826 478.143 189.954 478.143 190.108C478.143 190.245 478.171 190.354 478.226 190.436C478.28 190.517 478.363 190.599 478.472 190.663C478.582 190.727 478.71 190.79 478.856 190.845C479.002 190.899 479.167 190.954 479.35 191.017C479.615 191.108 479.889 191.199 480.181 191.308C480.465 191.418 480.73 191.554 480.967 191.727C481.205 191.899 481.397 192.118 481.552 192.381C481.708 192.645 481.781 192.963 481.781 193.354C481.781 193.8 481.699 194.19 481.534 194.509C481.37 194.836 481.15 195.1 480.867 195.318C480.584 195.527 480.264 195.691 479.907 195.791C479.551 195.891 479.176 195.945 478.792 195.945C478.235 195.945 477.696 195.845 477.165 195.654C476.645 195.463 476.206 195.182 475.868 194.827L477.101 193.572C477.293 193.809 477.54 194 477.86 194.163C478.171 194.318 478.481 194.4 478.792 194.4C478.929 194.4 479.066 194.381 479.203 194.354C479.341 194.327 479.45 194.281 479.551 194.209C479.651 194.145 479.734 194.054 479.788 193.945C479.843 193.836 479.88 193.7 479.88 193.554C479.88 193.409 479.843 193.281 479.77 193.181C479.697 193.081 479.597 192.981 479.459 192.899C479.322 192.818 479.158 192.736 478.948 192.672C478.747 192.599 478.518 192.527 478.262 192.445C478.015 192.363 477.769 192.272 477.531 192.163C477.293 192.054 477.074 191.908 476.891 191.745C476.699 191.572 476.553 191.363 476.434 191.118C476.325 190.872 476.261 190.572 476.261 190.227C476.261 189.799 476.352 189.426 476.526 189.117C476.699 188.808 476.937 188.554 477.22 188.363C477.504 188.163 477.833 188.017 478.189 187.926C478.545 187.835 478.911 187.79 479.277 187.79C479.715 187.79 480.172 187.872 480.629 188.035C481.086 188.199 481.488 188.435 481.836 188.754L480.62 189.99Z" fill="white"/>
<path d="M484.446 195.745V187.971H489.701V189.553H486.274V191.026H489.518V192.526H486.274V194.135H489.902V195.735H484.446V195.745Z" fill="white"/>
<path d="M160.26 176.496C148.751 176.496 137.588 174.971 126.772 171.92C116.095 168.731 107.498 164.64 100.98 159.648L112.42 134.272C118.66 138.848 126.079 142.523 134.676 145.296C143.274 148.07 151.871 149.456 160.468 149.456C170.036 149.456 177.108 148.07 181.684 145.296C186.26 142.384 188.548 138.571 188.548 133.856C188.548 130.39 187.162 127.547 184.388 125.328C181.754 122.971 178.287 121.099 173.988 119.712C169.828 118.326 164.143 116.8 156.932 115.136C145.839 112.502 136.756 109.867 129.684 107.232C122.612 104.598 116.511 100.368 111.38 94.5443C106.388 88.7203 103.892 80.955 103.892 71.2483C103.892 62.7896 106.18 55.163 110.756 48.3683C115.332 41.435 122.196 35.9576 131.348 31.9363C140.639 27.915 151.94 25.9043 165.252 25.9043C174.543 25.9043 183.626 27.0136 192.5 29.2323C201.375 31.451 209.14 34.6403 215.796 38.8003L205.396 64.3843C191.946 56.7576 178.495 52.9443 165.044 52.9443C155.615 52.9443 148.612 54.4696 144.036 57.5203C139.599 60.571 137.38 64.5923 137.38 69.5843C137.38 74.5763 139.946 78.3203 145.076 80.8163C150.346 83.1736 158.319 85.531 168.996 87.8883C180.09 90.523 189.172 93.1576 196.244 95.7923C203.316 98.427 209.348 102.587 214.34 108.272C219.471 113.958 222.036 121.654 222.036 131.36C222.036 139.68 219.679 147.307 214.964 154.24C210.388 161.035 203.455 166.443 194.164 170.464C184.874 174.486 173.572 176.496 160.26 176.496Z" fill="#1E1E1C"/>
<path d="M361.749 142.8H294.149L281.253 174H246.725L311.621 28.4003H344.901L410.005 174H374.645L361.749 142.8ZM351.141 117.216L328.053 61.4723L304.965 117.216H351.141Z" fill="#1E1E1C"/>
<path d="M245.386 210.4H279.082V328.544H352.09V356H245.386V210.4Z" fill="#1E1E1C"/>
<path d="M504.453 328.96V356H391.717V210.4H501.749V237.44H425.205V269.056H492.805V295.264H425.205V328.96H504.453Z" fill="#1E1E1C"/>
<path d="M210.052 130.746C210.052 148.02 186.756 162.012 158.021 162.012C129.287 162.012 106 148.011 106 130.746C106 113.481 129.287 99.4792 158.021 99.4792C186.756 99.4792 210.052 113.481 210.052 130.746Z" fill="#04367E"/>
<path d="M143.39 136.246C142.961 137.292 142.339 138.192 141.544 138.937C140.74 139.683 139.771 140.274 138.638 140.692C137.505 141.11 136.243 141.319 134.863 141.319C133.456 141.319 132.195 141.11 131.07 140.692C129.946 140.274 128.996 139.692 128.21 138.937C127.424 138.192 126.83 137.292 126.4 136.246C125.98 135.201 125.77 134.037 125.77 132.755V119.554H130.888V132.337C130.888 132.919 130.961 133.464 131.116 133.982C131.262 134.501 131.5 134.964 131.811 135.373C132.121 135.783 132.533 136.11 133.044 136.346C133.556 136.583 134.169 136.71 134.891 136.71C135.613 136.71 136.234 136.592 136.746 136.346C137.258 136.11 137.669 135.783 137.998 135.373C138.318 134.964 138.546 134.501 138.693 133.982C138.83 133.464 138.903 132.919 138.903 132.337V119.554H144.048V132.755C144.03 134.037 143.82 135.201 143.39 136.246Z" fill="#F66F44"/>
<path d="M163.458 140.783C162.06 141.119 160.543 141.292 158.898 141.292C157.189 141.292 155.626 141.019 154.191 140.483C152.756 139.946 151.522 139.183 150.489 138.21C149.457 137.228 148.652 136.064 148.067 134.691C147.483 133.328 147.199 131.8 147.199 130.127C147.199 128.427 147.492 126.891 148.086 125.518C148.68 124.145 149.493 122.972 150.535 121.999C151.577 121.036 152.802 120.29 154.209 119.772C155.617 119.254 157.125 118.99 158.751 118.99C160.433 118.99 162.005 119.244 163.449 119.754C164.893 120.263 166.072 120.945 166.968 121.808L163.714 125.491C163.211 124.909 162.553 124.436 161.731 124.072C160.908 123.699 159.976 123.518 158.934 123.518C158.029 123.518 157.198 123.681 156.439 124.009C155.681 124.336 155.013 124.8 154.456 125.381C153.898 125.972 153.46 126.672 153.149 127.482C152.838 128.291 152.683 129.173 152.683 130.127C152.683 131.109 152.82 132 153.103 132.819C153.387 133.637 153.798 134.337 154.355 134.928C154.904 135.519 155.589 135.973 156.403 136.301C157.216 136.628 158.139 136.792 159.19 136.792C159.793 136.792 160.36 136.746 160.908 136.655C161.448 136.564 161.95 136.419 162.416 136.219V132.355H158.358V128.227H167.141V139.456C166.072 140.001 164.847 140.437 163.458 140.783Z" fill="#F66F44"/>
<path d="M186.603 140.783C185.204 141.119 183.687 141.292 182.042 141.292C180.333 141.292 178.77 141.019 177.335 140.483C175.9 139.946 174.667 139.183 173.634 138.21C172.601 137.228 171.797 136.064 171.212 134.691C170.627 133.328 170.344 131.8 170.344 130.127C170.344 128.427 170.636 126.891 171.23 125.518C171.824 124.145 172.638 122.972 173.68 121.999C174.721 121.036 175.946 120.29 177.354 119.772C178.761 119.254 180.269 118.99 181.896 118.99C183.578 118.99 185.15 119.244 186.594 119.754C188.038 120.263 189.217 120.945 190.112 121.808L186.859 125.491C186.356 124.909 185.698 124.436 184.875 124.072C184.053 123.699 183.121 123.518 182.079 123.518C181.174 123.518 180.342 123.681 179.584 124.009C178.825 124.336 178.158 124.8 177.6 125.381C177.043 125.972 176.604 126.672 176.293 127.482C175.983 128.291 175.827 129.173 175.827 130.127C175.827 131.109 175.964 132 176.248 132.819C176.531 133.637 176.942 134.337 177.5 134.928C178.048 135.519 178.734 135.973 179.547 136.301C180.361 136.628 181.284 136.792 182.335 136.792C182.938 136.792 183.504 136.746 184.053 136.655C184.592 136.564 185.095 136.419 185.561 136.219V132.355H181.503V128.227H190.286V139.456C189.217 140.001 187.992 140.437 186.603 140.783Z" fill="#F66F44"/>
<path d="M328.064 129.744L263.117 94.6223L328.064 59.4903L393 94.6223L328.064 129.744Z" fill="#F4AE8C"/>
<path d="M299.085 91.9456C298.903 91.7142 298.67 91.5431 298.387 91.4022C298.094 91.2714 297.821 91.2009 297.547 91.2009C297.406 91.2009 297.264 91.211 297.123 91.2412C296.981 91.2714 296.849 91.3116 296.738 91.3821C296.627 91.4525 296.526 91.5431 296.455 91.6538C296.384 91.7645 296.344 91.9054 296.344 92.0765C296.344 92.2173 296.374 92.3482 296.435 92.4387C296.495 92.5394 296.586 92.6199 296.708 92.6903C296.829 92.7608 296.971 92.8312 297.133 92.8916C297.295 92.952 297.477 93.0124 297.679 93.0828C297.972 93.1835 298.276 93.2841 298.6 93.4048C298.913 93.5256 299.207 93.6766 299.47 93.8678C299.733 94.059 299.945 94.3005 300.117 94.5924C300.289 94.8842 300.37 95.2364 300.37 95.6691C300.37 96.1623 300.279 96.595 300.097 96.9472C299.915 97.3095 299.672 97.6013 299.358 97.8429C299.045 98.0743 298.691 98.2555 298.296 98.3662C297.902 98.4769 297.487 98.5373 297.062 98.5373C296.445 98.5373 295.848 98.4266 295.261 98.2152C294.674 98.0039 294.199 97.6919 293.825 97.2995L295.19 95.9107C295.403 96.1723 295.676 96.3837 296.03 96.5648C296.374 96.7359 296.718 96.8265 297.062 96.8265C297.214 96.8265 297.365 96.8063 297.517 96.7761C297.669 96.7459 297.79 96.6956 297.902 96.6151C298.013 96.5447 298.104 96.4441 298.165 96.3233C298.225 96.2025 298.266 96.0516 298.266 95.8805C298.266 95.7195 298.225 95.5786 298.144 95.4679C298.063 95.3572 297.952 95.2565 297.8 95.1559C297.649 95.0653 297.467 94.9748 297.234 94.9043C297.011 94.8238 296.758 94.7433 296.475 94.6527C296.202 94.5622 295.929 94.4615 295.666 94.3408C295.403 94.22 295.16 94.059 294.958 93.8778C294.745 93.6866 294.583 93.4551 294.452 93.1834C294.331 92.9117 294.26 92.5796 294.26 92.1972C294.26 91.7242 294.361 91.3116 294.553 90.9695C294.745 90.6273 295.008 90.3455 295.322 90.1342C295.636 89.9128 296 89.7518 296.394 89.6511C296.789 89.5505 297.193 89.5002 297.598 89.5002C298.084 89.5002 298.589 89.5907 299.095 89.7719C299.601 89.953 300.046 90.2147 300.431 90.5568L299.085 91.9456Z" fill="#518151"/>
<path d="M309.177 98.3154L308.509 96.6247H305.161L304.523 98.3154H302.247L305.879 89.7111H307.902L311.493 98.3154H309.177ZM306.86 92.0056L305.757 94.9542H307.932L306.86 92.0056Z" fill="#518151"/>
<path d="M320.879 96.4837C320.707 96.9064 320.454 97.2788 320.131 97.5807C319.807 97.8826 319.412 98.1241 318.947 98.2952C318.482 98.4663 317.976 98.5468 317.409 98.5468C316.843 98.5468 316.327 98.4663 315.872 98.2952C315.416 98.1241 315.032 97.8926 314.708 97.5807C314.395 97.2788 314.152 96.9165 313.98 96.4837C313.808 96.0611 313.727 95.5881 313.727 95.0648V89.7109H315.801V94.9037C315.801 95.1352 315.831 95.3667 315.892 95.5679C315.953 95.7692 316.044 95.9705 316.175 96.1315C316.297 96.3026 316.469 96.4334 316.681 96.524C316.893 96.6246 317.136 96.6649 317.43 96.6649C317.723 96.6649 317.976 96.6145 318.178 96.524C318.381 96.4334 318.553 96.2925 318.684 96.1315C318.816 95.9705 318.907 95.7793 318.967 95.5679C319.028 95.3566 319.048 95.1352 319.048 94.9037V89.7109H321.132V95.0648C321.142 95.5881 321.051 96.0611 320.879 96.4837Z" fill="#518151"/>
<path d="M330.61 98.165C330.054 98.4166 329.396 98.5475 328.668 98.5475C328 98.5475 327.383 98.4368 326.817 98.2154C326.25 97.994 325.765 97.682 325.34 97.2895C324.915 96.897 324.601 96.4039 324.358 95.8504C324.126 95.2969 324.004 94.673 324.004 94.0088C324.004 93.3245 324.126 92.7005 324.369 92.137C324.611 91.5835 324.945 91.1004 325.36 90.7079C325.785 90.3154 326.281 90.0135 326.847 89.8022C327.414 89.5909 328.031 89.4902 328.688 89.4902C329.295 89.4902 329.902 89.6009 330.489 89.8123C331.076 90.0236 331.561 90.3456 331.925 90.7583L330.509 92.1672C330.317 91.8954 330.054 91.7042 329.74 91.5734C329.427 91.4426 329.093 91.3822 328.759 91.3822C328.395 91.3822 328.061 91.4526 327.747 91.5834C327.434 91.7143 327.181 91.9055 326.958 92.137C326.736 92.3684 326.564 92.6502 326.442 92.9722C326.321 93.2943 326.26 93.6465 326.26 94.0189C326.26 94.4113 326.321 94.7636 326.442 95.0856C326.564 95.4076 326.736 95.6894 326.948 95.9209C327.161 96.1523 327.424 96.3335 327.727 96.4643C328.031 96.5951 328.354 96.6555 328.719 96.6555C329.133 96.6555 329.498 96.575 329.801 96.414C330.104 96.253 330.357 96.0416 330.55 95.78L332.006 97.1386C331.642 97.5612 331.167 97.9034 330.61 98.165Z" fill="#518151"/>
<path d="M343.518 93.9786C343.518 94.6629 343.397 95.2768 343.164 95.8404C342.931 96.4039 342.597 96.887 342.183 97.2895C341.768 97.6921 341.262 98.004 340.685 98.2154C340.109 98.4368 339.482 98.5475 338.804 98.5475C338.126 98.5475 337.499 98.4368 336.932 98.2154C336.356 97.994 335.86 97.682 335.445 97.2895C335.03 96.887 334.697 96.4039 334.464 95.8404C334.231 95.2768 334.11 94.6529 334.11 93.9786C334.11 93.2943 334.231 92.6703 334.464 92.1168C334.697 91.5633 335.03 91.0904 335.445 90.6979C335.87 90.3054 336.366 90.0135 336.932 89.8022C337.509 89.5909 338.136 89.4902 338.804 89.4902C339.471 89.4902 340.109 89.6009 340.685 89.8022C341.262 90.0035 341.758 90.3155 342.183 90.6979C342.608 91.0904 342.931 91.5533 343.164 92.1168C343.397 92.6603 343.518 93.2842 343.518 93.9786ZM341.282 93.9786C341.282 93.6062 341.222 93.254 341.1 92.932C340.979 92.6099 340.807 92.3282 340.594 92.0967C340.382 91.8652 340.119 91.6841 339.815 91.5533C339.512 91.4224 339.178 91.352 338.804 91.352C338.43 91.352 338.106 91.4224 337.802 91.5533C337.499 91.6841 337.246 91.8652 337.023 92.0967C336.801 92.3282 336.639 92.5999 336.518 92.932C336.396 93.254 336.346 93.6062 336.346 93.9786C336.346 94.3711 336.406 94.7233 336.528 95.0554C336.649 95.3875 336.821 95.6693 337.033 95.9007C337.246 96.1322 337.509 96.3234 337.812 96.4542C338.116 96.5851 338.45 96.6555 338.814 96.6555C339.178 96.6555 339.512 96.5851 339.815 96.4542C340.119 96.3234 340.382 96.1322 340.594 95.9007C340.817 95.6693 340.989 95.3875 341.11 95.0554C341.222 94.7233 341.282 94.361 341.282 93.9786Z" fill="#518151"/>
<path d="M351.974 98.3154L348.494 92.6899H348.454L348.504 98.3154H346.481V89.7111H348.858L352.328 95.3265H352.369L352.318 89.7111H354.341V98.3154H351.974Z" fill="#518151"/>
<path d="M361.918 94.6625V98.3056H359.834V94.6625L356.586 89.7012H359.115L360.957 92.8813L362.798 89.7012H365.246L361.918 94.6625Z" fill="#518151"/>
<path d="M493 261.63H391V299.553H493V261.63Z" fill="#F66F44"/>
<path d="M409.197 280.675C409.197 281.275 409.084 281.787 408.859 282.227C408.634 282.659 408.344 283.019 407.974 283.299C407.604 283.58 407.194 283.788 406.735 283.916C406.277 284.052 405.81 284.116 405.336 284.116H402.77V277.274H405.255C405.738 277.274 406.22 277.33 406.695 277.442C407.17 277.554 407.588 277.738 407.958 278.002C408.328 278.266 408.626 278.61 408.851 279.05C409.084 279.49 409.197 280.027 409.197 280.675ZM407.467 280.675C407.467 280.291 407.403 279.971 407.274 279.714C407.146 279.458 406.977 279.258 406.768 279.106C406.558 278.954 406.317 278.85 406.052 278.786C405.786 278.722 405.505 278.69 405.223 278.69H404.394V282.691H405.183C405.48 282.691 405.77 282.659 406.044 282.587C406.317 282.523 406.558 282.411 406.776 282.251C406.985 282.099 407.154 281.891 407.282 281.635C407.403 281.371 407.467 281.051 407.467 280.675Z" fill="#04367E"/>
<path d="M415.239 284.108L413.743 281.395H413.18V284.108H411.555V277.266H414.177C414.507 277.266 414.829 277.298 415.142 277.37C415.456 277.434 415.738 277.554 415.987 277.714C416.236 277.874 416.438 278.091 416.582 278.355C416.735 278.619 416.808 278.947 416.808 279.339C416.808 279.803 416.679 280.195 416.43 280.507C416.18 280.819 415.826 281.051 415.384 281.179L417.178 284.108H415.239ZM415.167 279.371C415.167 279.211 415.134 279.083 415.062 278.979C414.998 278.883 414.909 278.803 414.797 278.747C414.692 278.691 414.571 278.651 414.435 278.635C414.298 278.619 414.169 278.603 414.048 278.603H413.164V280.195H413.952C414.089 280.195 414.225 280.187 414.37 280.163C414.515 280.139 414.644 280.099 414.764 280.043C414.885 279.987 414.973 279.899 415.054 279.795C415.134 279.683 415.167 279.539 415.167 279.371Z" fill="#04367E"/>
<path d="M420.99 283.26C420.99 283.532 420.894 283.756 420.701 283.933C420.508 284.117 420.282 284.205 420.017 284.205C419.88 284.205 419.752 284.181 419.631 284.133C419.51 284.085 419.406 284.021 419.317 283.933C419.229 283.853 419.156 283.749 419.1 283.636C419.052 283.524 419.02 283.404 419.02 283.268C419.02 283.14 419.044 283.02 419.1 282.9C419.148 282.78 419.221 282.684 419.317 282.596C419.406 282.508 419.51 282.444 419.631 282.388C419.752 282.34 419.88 282.308 420.017 282.308C420.282 282.308 420.508 282.396 420.701 282.58C420.894 282.764 420.99 282.988 420.99 283.26Z" fill="#04367E"/>
<path d="M433.359 284.108L433.399 279.267H433.367L431.581 284.108H430.415L428.678 279.267H428.645L428.686 284.108H427.125V277.266H429.49L431.059 281.652H431.099L432.595 277.266H435V284.108H433.359Z" fill="#04367E"/>
<path d="M442.323 284.108L441.792 282.764H439.129L438.622 284.108H436.812L439.7 277.266H441.309L444.165 284.108H442.323ZM440.481 279.099L439.604 281.443H441.333L440.481 279.099Z" fill="#04367E"/>
<path d="M449.68 284.108L448.184 281.395H447.621V284.108H445.996V277.266H448.619C448.948 277.266 449.27 277.298 449.584 277.37C449.898 277.434 450.179 277.554 450.428 277.714C450.678 277.874 450.879 278.091 451.024 278.355C451.177 278.619 451.249 278.947 451.249 279.339C451.249 279.803 451.12 280.195 450.871 280.507C450.621 280.819 450.268 281.051 449.825 281.179L451.619 284.108H449.68ZM449.616 279.371C449.616 279.211 449.584 279.083 449.511 278.979C449.447 278.883 449.359 278.803 449.246 278.747C449.141 278.691 449.021 278.651 448.884 278.635C448.747 278.619 448.619 278.603 448.498 278.603H447.613V280.195H448.401C448.538 280.195 448.675 280.187 448.82 280.163C448.964 280.139 449.093 280.099 449.214 280.043C449.334 279.987 449.423 279.899 449.503 279.795C449.576 279.683 449.616 279.539 449.616 279.371Z" fill="#04367E"/>
<path d="M456.65 278.683V284.116H454.993V278.683H453.055V277.274H458.597V278.683H456.65Z" fill="#04367E"/>
<path d="M460.605 284.108V277.266H465.231V278.659H462.214V279.955H465.07V281.275H462.214V282.692H465.408V284.1H460.605V284.108Z" fill="#04367E"/>
<path d="M472.134 284.108L469.366 279.635H469.334L469.374 284.108H467.766V277.266H469.656L472.415 281.732H472.447L472.407 277.266H474.016V284.108H472.134Z" fill="#04367E"/>
<path d="M480.327 279.051C480.183 278.867 479.998 278.731 479.772 278.619C479.539 278.515 479.322 278.459 479.105 278.459C478.992 278.459 478.88 278.467 478.767 278.491C478.654 278.515 478.55 278.547 478.461 278.603C478.373 278.659 478.292 278.731 478.236 278.819C478.18 278.907 478.148 279.019 478.148 279.155C478.148 279.267 478.172 279.371 478.22 279.443C478.268 279.523 478.341 279.587 478.437 279.643C478.534 279.699 478.646 279.755 478.775 279.803C478.904 279.851 479.048 279.899 479.209 279.955C479.443 280.035 479.684 280.115 479.941 280.211C480.191 280.307 480.424 280.427 480.633 280.58C480.842 280.732 481.011 280.924 481.148 281.156C481.285 281.388 481.349 281.668 481.349 282.012C481.349 282.404 481.277 282.748 481.132 283.028C480.987 283.316 480.794 283.548 480.545 283.74C480.295 283.924 480.014 284.069 479.7 284.157C479.386 284.245 479.056 284.293 478.719 284.293C478.228 284.293 477.753 284.205 477.287 284.036C476.82 283.868 476.442 283.62 476.145 283.308L477.23 282.204C477.399 282.412 477.617 282.58 477.898 282.724C478.172 282.86 478.445 282.932 478.719 282.932C478.839 282.932 478.96 282.916 479.081 282.892C479.201 282.868 479.298 282.828 479.386 282.764C479.475 282.708 479.547 282.628 479.595 282.532C479.644 282.436 479.676 282.316 479.676 282.18C479.676 282.052 479.644 281.94 479.579 281.852C479.515 281.764 479.427 281.684 479.306 281.604C479.185 281.532 479.04 281.46 478.855 281.404C478.678 281.34 478.477 281.276 478.252 281.204C478.035 281.132 477.818 281.052 477.609 280.956C477.399 280.86 477.206 280.732 477.045 280.588C476.877 280.435 476.748 280.251 476.643 280.035C476.547 279.819 476.49 279.555 476.49 279.251C476.49 278.875 476.571 278.547 476.724 278.275C476.877 278.003 477.086 277.779 477.335 277.611C477.584 277.435 477.874 277.307 478.188 277.227C478.501 277.147 478.823 277.107 479.145 277.107C479.531 277.107 479.933 277.179 480.336 277.323C480.738 277.467 481.092 277.675 481.397 277.947L480.327 279.051Z" fill="#04367E"/>
<path d="M493.693 117.799L473.797 106.312L462.31 126.208L482.206 137.695L493.693 117.799Z" fill="#F66F44"/>
</svg>
